<?xml version="1.0" encoding="UTF-8"?><svg id="Capa_1" xmlns="http://www.w3.org/2000/svg" xmlns:xlink="http://www.w3.org/1999/xlink" viewBox="0 0 150 150"><defs><style>.cls-1{fill:#b2ce3a;}.cls-2{filter:url(#drop-shadow-2);}.cls-3,.cls-4{fill:#217c4c;}.cls-4{fill-rule:evenodd;}</style><filter id="drop-shadow-2" filterUnits="userSpaceOnUse"><feOffset dx="3" dy="3"/><feGaussianBlur result="blur" stdDeviation="3"/><feFlood flood-color="#000" flood-opacity=".2"/><feComposite in2="blur" operator="in"/><feComposite in="SourceGraphic"/></filter></defs><circle class="cls-1" cx="75" cy="75" r="60.95"/><g class="cls-2"><path class="cls-3" d="M22.62,126.38l7.2-26.88c-4.25-7.67-6.49-16.27-6.49-25,0-29.21,24.33-52.85,53.8-51.71,26.86,1.04,48.62,22.81,49.66,49.67,1.14,29.46-22.5,53.79-51.71,53.79-8.57,0-17.03-2.16-24.6-6.27l-27.02,7.24c-.51,.14-.98-.33-.84-.84Zm25.22-13.46c1.38-.37,2.85-.17,4.08,.57h0c7.04,4.2,15.06,6.42,23.17,6.42,25.62,0,46.35-21.34,45.35-47.18-.91-23.56-20-42.65-43.55-43.57-25.84-1.01-47.19,19.73-47.19,45.35,0,8.26,2.3,16.4,6.64,23.53h0c.75,1.23,.97,2.72,.59,4.12l-3.64,13.59c-.14,.51,.33,.98,.84,.84l13.71-3.67Z"/><path class="cls-4" d="M94.33,81.7c-2.13-1.27-4.9-2.7-7.41-1.67-1.92,.79-3.15,3.8-4.4,5.34-.64,.79-1.4,.91-2.39,.52-7.23-2.88-12.76-7.7-16.75-14.35-.68-1.03-.55-1.85,.26-2.81,1.21-1.42,2.72-3.03,3.04-4.94,.33-1.91-.57-4.15-1.36-5.85-1.01-2.18-2.14-5.28-4.32-6.51-2-1.13-4.64-.5-6.42,.96-3.08,2.51-4.57,6.44-4.52,10.33,.01,1.11,.15,2.21,.41,3.28,.62,2.57,1.81,4.97,3.15,7.25,1.01,1.72,2.1,3.39,3.28,4.99,3.87,5.25,8.67,9.81,14.24,13.22,2.78,1.7,5.78,3.2,8.88,4.22,3.48,1.15,6.58,2.35,10.34,1.63,3.93-.75,7.81-3.18,9.37-6.97,.46-1.12,.69-2.37,.43-3.56-.53-2.45-3.85-3.91-5.84-5.09Z"/></g></svg>