<?xml version="1.0" encoding="UTF-8"?><svg id="Capa_1" xmlns="http://www.w3.org/2000/svg" xmlns:xlink="http://www.w3.org/1999/xlink" viewBox="0 0 150 150"><defs><style>.cls-1{fill:#b2ce3a;}.cls-2{filter:url(#drop-shadow-2);}.cls-3{fill:#217c4c;}</style><filter id="drop-shadow-2" filterUnits="userSpaceOnUse"><feOffset dx="3" dy="3"/><feGaussianBlur result="blur" stdDeviation="3"/><feFlood flood-color="#000" flood-opacity=".2"/><feComposite in2="blur" operator="in"/><feComposite in="SourceGraphic"/></filter></defs><circle class="cls-1" cx="75" cy="76.37" r="60.95"/><g><g class="cls-2"><path class="cls-3" d="M121.12,117.91c-.14-1.36-.3-2.75-.46-4.09-.12-.98-.23-1.95-.33-2.93-.18-1.57-.34-3.14-.5-4.72-.12-1.13-.24-2.26-.36-3.4-.33-3.12-.67-6.24-1.02-9.35-.03-.29-.06-.59-.09-.89-.08-.79-.16-1.6-.32-2.37-.36-1.75-1.3-3.32-2.81-4.67-1-.89-2.09-1.48-3.25-1.78-1.19-.3-2.43-.49-3.63-.67l-.62-.09c-.74-.11-1.1-.46-1.23-1.2-.21-1.27-.95-2.04-2.19-2.28-1.75-.36-3.55-.68-5.28-.99-.59-.11-1.18-.21-1.76-.32-.24-.04-.47-.06-.69-.06-1.16,0-2.02,.59-2.57,1.76-.18,.39-.46,.59-.82,.59-.06,0-.13,0-.21-.02-.65-.12-1.31-.24-1.97-.36l-1.15-.21c-.44-.08-.74-.33-.89-.75-.59-1.69-1.2-3.38-1.81-5.04-.07-.18-.27-.75,.33-1.21,.35-.26,.69-.57,1.01-.87l.05-.05c3.81-3.5,6.45-7.81,7.85-12.8,1-3.54,1.25-6.8,.77-9.96-.1-.63,.15-1.01,.77-1.16,1.36-.35,2.47-1.06,3.4-2.16,2.12-2.5,1.92-6.48-.43-8.68-.73-.68-.91-1.45-.99-2.1-.4-3.31-1.44-6.48-3.08-9.42-1.47-2.64-3.34-4.96-5.56-6.89-2.62-2.28-5.62-3.95-8.91-4.98-2.31-.72-4.73-1.09-7.2-1.09-.75,0-1.53,.03-2.29,.1-5.76,.5-10.82,2.81-15.04,6.86-2.09,2-3.82,4.38-5.15,7.07-1.34,2.73-2.22,5.74-2.59,8.96-.06,.47-.25,.84-.64,1.18-1.46,1.29-2.2,2.95-2.18,4.93,.02,3.02,1.9,5.4,4.91,6.21,.21,.06,.86,.24,.74,1.09-.24,1.62-.3,3.16-.19,4.73,.24,3.21,1.03,6.32,2.35,9.23,1.77,3.89,4.29,7.18,7.51,9.77,.39,.32,.5,.69,.33,1.15-.56,1.54-1.15,3.21-1.82,5.09-.16,.46-.49,.74-.96,.82-.88,.15-1.76,.31-2.64,.47l-.37,.07c-.09,.02-.16,.02-.23,.02-.36,0-.63-.18-.8-.55-.57-1.21-1.43-1.8-2.63-1.8-.26,0-.53,.03-.81,.08-2.07,.4-4.3,.83-6.55,1.22-1.5,.26-2.34,1.09-2.55,2.52-.12,.79-.62,.96-1.04,1.03-.89,.14-1.79,.29-2.66,.44l-.62,.11c-3.34,.57-5.6,2.46-6.9,5.75-.39,.99-.48,2.03-.57,3.14-.03,.38-.07,.77-.12,1.16-.21,1.72-.39,3.48-.57,5.18-.08,.75-.16,1.5-.24,2.25-.01,.15-.1,.91-.23,1.96-.27,2.29-.72,6.12-.92,7.98-.11,.98-.22,1.95-.34,2.93-.16,1.34-.32,2.72-.46,4.09-.24,2.3,.15,4.45,1.15,6.37,1.78,3.43,4.61,5.44,8.42,5.98,.34,.05,.71,.06,1.05,.06h.41c5.95,0,11.89,0,17.84,0h52.51c.44,0,.88,0,1.29-.06,3.82-.54,6.65-2.55,8.42-5.98,1-1.92,1.39-4.07,1.15-6.37Zm-77.87,8.68c-.24,.24-.56,.26-.78,.26h-.06c-.43-.01-.89-.02-1.48-.02-.27,0-.55,0-.82,0h-.61c-.5-.03-.89-.08-1.25-.15-3.47-.7-6.01-3.8-6.05-7.38,0-.68,.09-1.34,.18-1.98,.04-.31,.09-.64,.12-.95,.21-1.95,.7-6.22,1.09-9.66,.24-2.03,.44-3.79,.5-4.38,.3-2.77,.59-5.54,.89-8.31,.03-.24,.05-.48,.07-.73,.06-.59,.12-1.21,.21-1.82,.37-2.46,2.07-4.16,4.56-4.55,.85-.13,1.73-.27,2.59-.45,.12-.03,.22-.03,.32-.03,.22,0,.41,.07,.54,.2,.21,.21,.24,.49,.23,.74,0,1.87,0,3.77,0,5.61v17.53c0,4.98,0,10.13,0,15.19,0,.3-.02,.64-.26,.88Zm11.4-81.91c-.11,0-.22,0-.34,0-.13,0-.25,0-.38,0-.47,0-1.02-.03-1.56-.31-.95-.47-1.58-1.36-1.68-2.38-.1-.99,.33-1.96,1.14-2.6,.91-.71,1.43-1.66,1.55-2.8,.31-2.99,1.01-5.58,2.14-7.93,1.38-2.86,3.27-5.34,5.63-7.35,.85-.72,1.81-1.42,2.96-2.13,.21-.13,.39-.24,.59-.24,.55,0,.56,.6,.56,.86v1.59c0,.76,0,1.54,0,2.31,.01,1.06,.72,1.8,1.72,1.8h.06c.78-.03,1.41-.59,1.56-1.41,.07-.37,.07-.76,.07-1.16v-1.38c0-1.15,.01-2.34,0-3.51,0-.67,.3-1.07,.96-1.21l.2-.04c.83-.18,1.68-.36,2.54-.47,.08,0,.15-.02,.21-.02,.24,0,.43,.07,.57,.21,.21,.21,.23,.5,.22,.7-.01,1.07,0,2.16,0,3.21,0,.4,0,.8,0,1.2v.43h0v.83c0,.95,0,1.9,0,2.86,0,1.07,.68,1.82,1.65,1.83h.03c.98,0,1.67-.75,1.68-1.83,0-1.91,0-3.85,0-5.73,0-.86,0-1.73,0-2.59,0-.44,0-1.11,.77-1.11,.11,0,.23,.01,.42,.04,.71,.1,1.47,.25,2.38,.45,.95,.21,1.11,.41,1.11,1.39v2.54c0,.9,0,1.81,0,2.71,0,.46,.03,.8,.21,1.09,.35,.62,.89,.97,1.49,.97,.14,0,.29-.02,.44-.06,.79-.21,1.27-.87,1.28-1.77,.01-.82,0-1.65,0-2.45,0-.47,0-.93,0-1.39,0-.33,0-.89,.54-.89,.18,0,.34,.09,.6,.24,1.93,1.12,3.73,2.63,5.34,4.49,2.77,3.2,4.53,7.04,5.21,11.42,.06,.35,.12,.76,.15,1.17,.09,1.3,.61,2.34,1.61,3.16,1.04,.85,1.4,2.13,.95,3.33-.43,1.15-1.61,1.92-2.93,1.92-4.54-.01-9.14-.01-13.6-.01h-3.57c-3.79,0-7.58,0-11.38,0h-8.37c-1.58,0-3.16,0-4.74,0Zm2.78,15.05c-1.26-3.48-1.65-6.94-1.14-10.29,.16-1.06,.34-1.21,1.43-1.22,1.48,0,2.94,0,4.4,0,1.68,0,3.36,0,5.03-.01,1.01,0,2.01,0,3.02,0h2.39s19.92,0,19.92,0c.95,0,1.13,.16,1.28,1.09,.6,3.86,.06,7.71-1.64,11.77-1.31,3.12-3.19,5.84-5.59,8.09-3.11,2.91-6.48,4.47-10.29,4.76-.42,.03-.84,.05-1.25,.05-3.44,0-6.72-1.14-9.73-3.39-3.55-2.66-6.18-6.3-7.83-10.84Zm28.44,22.31c-2.02,3.98-5.24,6.27-9.55,6.82-.24,.03-.47,.06-.73,.08-.12,0-.24,.02-.36,.03h-.03s-.03,0-.03,0c-4.79-.26-8.37-2.39-10.65-6.32-.53-.91-.58-1.69-.19-2.6,.43-1.01,.79-2.08,1.14-3.11,.09-.26,.18-.51,.26-.77,.06-.17,.23-.68,.77-.68,.15,0,.32,.04,.53,.14,2.43,1.17,4.96,1.8,7.54,1.88,.17,0,.34,0,.51,0,2.65,0,5.32-.63,7.94-1.86,.23-.11,.39-.15,.55-.15,.53,0,.7,.5,.77,.69,.49,1.45,1.01,2.87,1.62,4.55,.16,.43,.13,.87-.09,1.29Zm-29.55,20.66c0-5.76,0-11.51,0-17.27,0-1.19,.15-1.37,1.31-1.59,.47-.09,.95-.17,1.42-.24,.4-.06,.8-.13,1.2-.21,.07-.01,.15-.02,.22-.02,.56,0,.81,.45,.89,.6,1.7,3.17,4.16,5.52,7.31,6.96,2.15,.98,4.32,1.48,6.44,1.48,1.73,0,3.49-.33,5.21-.98,3.67-1.39,6.48-3.87,8.35-7.36,.15-.29,.43-.68,1.01-.68,.11,0,.23,.01,.36,.04,.86,.18,1.76,.32,2.62,.45l.23,.03c.57,.09,.83,.41,.83,1,0,1.33,0,2.69,0,4,0,1.01,.01,2.01,.01,3.02,0,2.01-.01,4.02-.02,6.04,0,1.51-.01,3.02-.02,4.53,0,.48,.02,.98,.06,1.47,.02,.22,.01,.54-.21,.78-.17,.18-.4,.27-.72,.27h-.06c-.29,0-.6-.01-.98-.01-.24,0-.48,0-.72,0-.24,0-.49,0-.73,0H57.5c-.46,0-.74,0-.96-.22-.22-.22-.22-.51-.22-.95v-1.15Zm46.83-19.05c0,.1,0,.2,0,.31,0,.06,0,.12,0,.19v41.09c0,.09,0,.18,0,.27,0,.25-.07,.44-.21,.59-.14,.14-.34,.21-.59,.21-4.19-.03-7.62-.04-10.82-.04-1.15,0-2.3,0-3.45,0h-12.41c-.92,0-1.85,0-2.77,0-.92,0-1.85,0-2.77,0-1.41,0-2.57,0-3.66,.02-1.13,.01-2.25,.01-3.39,.01h-.66c-1.03,0-2.04,0-3.07,.01-.45,0-.91,0-1.36,0-1.02,0-2.04,0-3.05-.02-.96,0-1.92-.02-2.87-.02h-.09c-1.31,0-2.64,.03-3.94,.05h-.07s-.2,0-.2,0c-.85,0-.92-.45-.92-1.08v-41.26c0-1.04,.15-1.23,1.17-1.41h.03c.8-.15,1.61-.3,2.42-.45,.44-.08,.87-.16,1.31-.24,.18-.03,.32-.06,.44-.06,.72,0,.72,.67,.72,1.03,0,0,0,19.67,0,24.58,0,.61,.49,1.1,1.1,1.1,0,0,34.89,.02,41.85,.02,.66,0,1.2-.54,1.2-1.2,0-5.06,0-24.38,0-24.38,0-.5,0-1.13,.7-1.13,.16,0,.34,.03,.61,.09,.35,.06,.69,.13,1.04,.19,.93,.18,1.89,.36,2.84,.52,.75,.12,.87,.63,.85,1.03Zm8.6,43.03c-.81,.16-1.61,.18-2.22,.18-.32,0-.64,0-.96-.01-.32,0-.63-.01-.94-.01h-.28c-.23,0-.41-.07-.56-.21-.2-.2-.22-.46-.22-.67v-38.34c0-.56,0-1.19,.72-1.19,.15,0,.31,.03,.56,.06l.09,.02c.97,.16,1.97,.33,2.95,.52,2.01,.41,3.69,2.28,3.92,4.36,.2,1.86,.41,3.71,.61,5.56,.24,2.13,.47,4.25,.7,6.37,.43,3.96,.88,8.22,1.38,13.02,.03,.32,.08,.64,.12,.95,.09,.64,.19,1.3,.18,1.98-.04,3.58-2.58,6.69-6.05,7.38Z"/></g><path class="cls-3" d="M94.09,41.55c-.45,.27-.98,.27-1.54,.27-2.5,0-4.99,0-7.49,0h-9.79c-.83,0-1.66,0-2.49,0-.87,0-1.45-.12-1.86-.71-.44-.64-.48-1.28-.12-1.96,.3-.56,.81-.85,1.51-.85h16.22c1.55,0,3.1,0,4.65,0,.86,0,1.48,.49,1.7,1.34,.18,.7-.15,1.52-.79,1.91Z"/><path class="cls-3" d="M67.2,39.95c.08,.95-.55,1.66-1.6,1.83-.02,0-.03,0-.06,.01-.66,0-1.32,.01-1.97,.02-.98,.01-1.99,.03-2.98,.03-1.52,0-2.78-.03-3.94-.1-.41-.03-.78-.21-1.06-.52-.3-.34-.45-.8-.42-1.25,.06-1.01,.75-1.67,1.74-1.68,.56,0,1.12,0,1.68,0,.43,0,.87,0,1.3,0h5.44c1.08,0,1.8,.64,1.88,1.66Z"/></g></svg>