<?xml version="1.0" encoding="UTF-8"?><svg id="Capa_1" xmlns="http://www.w3.org/2000/svg" viewBox="0 0 150 150"><defs><style>.cls-1{fill:#b2ce3a;}.cls-2{fill:#217c4c;}</style></defs><circle class="cls-1" cx="75" cy="75" r="60.95"/><path class="cls-2" d="M114.01,46.47c-1.31-15.81-12.4-29.68-27.58-34.29-1.32-.4-8.65-2.33-15.96-1.24-18.37,2.74-34.17,18.6-34.61,37.59-.28,12.15,4.13,22.38,13.05,30.64,1.82,1.69,3.49,3.5,4.83,5.59,3.05,4.77,5.05,9.84,4.96,15.65-.11,7.24-.03,14.49-.02,21.73,0,2.35,1.03,4.12,3.12,5.18,.63,.32,.8,.74,.87,1.36,.23,1.95,.94,3.72,2.06,5.33,1.98,2.84,4.79,5.05,9.7,5.35,7.67,.48,12.04-5.19,12.92-11.06,.05-.35,.13-.62,.49-.79,2.72-1.27,3.53-3.54,3.51-6.37-.06-6.99,.08-13.99-.06-20.98-.16-8.45,4.96-14.75,10.22-20.8,5.98-6.88,10.9-14.26,12.25-23.48,.46-3.12,.52-6.28,.26-9.42Zm-51.58,53.53c-.02-.61,.12-.9,.82-.9,7.82,.02,15.64,.03,23.46,.01,.67,0,.86,.27,.84,.89-.03,1.13-.07,2.26,0,3.39,.06,.92-.21,1.23-1.17,1.22-3.8-.06-7.61-.02-11.41-.02h0c-3.8,0-7.61-.02-11.41,.02-.86,.01-1.19-.2-1.14-1.1,.07-1.17,.04-2.34,0-3.51Zm0,9.33c-.02-.67,.14-.96,.89-.96,7.74,.03,15.47,.04,23.21,0,.89,0,1.04,.33,1.02,1.1-.05,1.46-.05,2.93,0,4.39,.03,.81-.2,1.08-1.05,1.07-3.89-.04-7.78-.02-11.67-.02h0c-3.81,0-7.61,0-11.42,.03-.75,0-1.04-.17-1.01-.97,.06-1.54,.05-3.09,.01-4.64Zm20.98,19.65c-.91,3.83-4.38,6.63-8.36,6.66-3.98,.03-7.54-2.72-8.48-6.51-.22-.88-.04-1.19,.91-1.18,2.55,.05,5.09,.02,7.64,.02h0c2.51,0,5.01,.01,7.52-.02,.84-.01,.96,.25,.77,1.03Zm-.06-4.81c-6.07,0-12.14,0-18.21,0-2.17,0-2.68-.51-2.7-2.63q-.03-2.84,2.77-2.83c3.27,0,6.53,0,9.8,0,3.73,0,7.45,.03,11.18-.02,.98-.01,1.39,.18,1.38,1.29-.04,4.12-.07,4.19-4.21,4.19Zm18.14-51.26c-5.29,6.66-11.44,12.74-13.38,21.3-.19,.85-.51,1.17-1.4,1.15-2.89-.06-5.78-.07-8.67-.03-.87,.01-1.15-.25-1.15-1.13,.03-6.03,.02-12.06,.02-18.09,0-2.27,.54-4.37,1.75-6.32,.5-.8,1-1.14,2.01-.99,4.39,.66,8.49-.25,12.28-2.52,6.49-3.87,10.06-11.51,8.9-18.98-.34-2.17-1.46-3.34-3.64-3.71-1.91-.33-3.85-.39-5.75-.05-10.41,1.84-16.91,10.26-15.88,20.78,.18,1.83-.69,2.8-1.68,4.11-.41-1.33-1.75-1.9-1.49-3.55,1.78-11.53-7.39-21.83-19.04-21.51-5.01,.14-6.12,1.14-6.37,6.13-.2,3.96,.84,7.62,3.02,10.94,.71,1.08,1.76,1.36,2.69,.79,.87-.53,1.11-1.6,.59-2.64-.13-.26-.29-.51-.44-.76-1.73-2.95-2.37-6.13-1.98-9.53,.08-.72,.34-1,1.06-1.09,8.04-.98,15.47,4.58,16.73,12.54,.09,.6,.11,1.21,.13,1.81-1.79-1.59-3.59-3.17-5.36-4.78-1.01-.93-2.06-1.07-2.88-.3-.87,.81-.81,1.91,.19,2.97,.97,1.04,1.99,2.04,2.94,3.09,.77,.84,1.71,1.54,2.34,2.62-.58,0-1.04,.03-1.49,0-1.94-.17-3.77-.7-5.53-1.55-1.31-.63-2.36-.34-2.88,.75-.48,1.02-.06,1.95,1.2,2.63,.37,.2,.75,.38,1.13,.53,3.29,1.32,6.69,1.81,10.21,1.24,.69-.11,1.09,.07,1.45,.64,1.07,1.69,1.89,3.47,1.91,5.5,.05,6.49,.06,12.98,.1,19.47,0,.7-.22,.96-.94,.95-3.06-.03-6.11-.02-9.17,0-.64,0-.96-.16-1.11-.86-1.68-7.52-5.52-13.76-11.26-18.86-1.29-1.14-2.46-2.41-3.47-3.8-10.06-13.84-9.72-33.87,3.05-46.01,8.11-7.71,19.22-12.59,30.35-10.75,13.44,2.23,22.87,9.94,27.56,22.68,2.76,7.5,3.02,15.83,.35,23.4-1.55,4.41-4.16,8.17-7.01,11.76Zm-13.04-16.44c-.77-.7-1.85-.68-2.69,.17-1.53,1.54-3.03,3.12-4.53,4.7-.25,.27-.41,.62-.61,.94l-.35-.28c-.39-5.05,3.11-10.73,8.14-13.25,2.74-1.37,5.62-1.81,8.65-1.51,.59,.06,.97,.2,1.08,.93,1.33,8.8-6,17.24-14.84,17.06-.07,0-.14-.06-.36-.16,1.53-1.6,3.01-3.16,4.5-4.71,.35-.36,.72-.71,1.04-1.09,.81-.94,.8-2.04-.02-2.79Z"/></svg>