<?xml version="1.0" encoding="UTF-8"?><svg id="Capa_1" xmlns="http://www.w3.org/2000/svg" xmlns:xlink="http://www.w3.org/1999/xlink" viewBox="0 0 150 150"><defs><style>.cls-1{fill:#b2ce3a;}.cls-2{filter:url(#drop-shadow-2);}.cls-3{fill:#217c4c;}</style><filter id="drop-shadow-2" filterUnits="userSpaceOnUse"><feOffset dx="3" dy="3"/><feGaussianBlur result="blur" stdDeviation="3"/><feFlood flood-color="#000" flood-opacity=".2"/><feComposite in2="blur" operator="in"/><feComposite in="SourceGraphic"/></filter></defs><circle class="cls-1" cx="75" cy="75" r="60.95"/><g class="cls-2"><path class="cls-3" d="M75.48,27.74c8.99-.27,17.8,2.25,25.88,7.28,7.71,4.81,13.65,11.29,17.76,19.42,2.86,5.65,4.54,11.63,5.06,17.94,.69,8.4-.73,16.44-4.22,24.11-1.95,4.29-4.52,8.19-7.49,11.85-.18,.22-.34,.46-.52,.68-.48,.59-.42,1.13-.02,1.79,1.88,3.1,3.7,6.24,5.03,9.63,.68,1.73,1.27,3.49,1.49,5.35,.1,.8,.06,1.6-.19,2.37-.64,1.92-2.18,2.67-4.55,2.22-2.29-.43-4.3-1.51-6.25-2.71-3.39-2.08-6.57-4.45-9.76-6.82-.57-.42-1.01-.53-1.68-.2-7.28,3.6-15.04,4.61-23.07,4.34-5.85-.19-11.41-1.58-16.73-3.94-1.41-.63-2.39-.53-3.66,.44-3.51,2.69-7.06,5.35-11,7.41-1.53,.8-3.14,1.34-4.85,1.62-1.71,.28-3.98-1.11-3.91-3.38,.08-3.06,.99-5.83,2.2-8.55,1.27-2.85,2.91-5.5,4.45-8.2,.32-.56,.29-.96-.1-1.45-2.14-2.67-4.28-5.35-5.96-8.36-3.03-5.42-5.02-11.18-5.91-17.32-1.08-7.45-.45-14.76,1.87-21.9,2.51-7.72,6.7-14.38,12.58-20.02,7.94-7.61,17.37-11.95,28.2-13.4,1.59-.21,3.19-.23,5.36-.18Zm.05,5.9c-19.62-.67-40.97,15.35-42.59,39.91-1.64,24.98,18.26,45.09,41.35,45.7,23.18,.61,42.67-17.11,44.1-40.36,1.57-25.62-19.86-46.05-42.86-45.24Z"/><path class="cls-3" d="M127.01,37.27c.05,1.65-.72,3.18-1.83,4.57-1.34,1.67-2.8,3.24-4.39,4.68-.4,.36-.62,.49-1-.11-2.3-3.61-5.21-6.7-8.19-9.74-3.77-3.85-8.03-7.01-12.87-9.38-.56-.27-.54-.47-.16-.9,1.52-1.71,3.05-3.39,4.67-5,2.74-2.71,7.18-2.31,9.45-.35,4.12,3.57,8.32,7.05,12.19,10.9,1.48,1.47,2.15,3.14,2.14,5.34Z"/><path class="cls-3" d="M41.84,19.46c1.9-.04,3.64,.69,5.12,2.18,1.53,1.54,3.01,3.13,4.47,4.73,.43,.48,.42,.68-.17,.95-8.25,3.96-14.39,10.35-19.94,17.41-.46,.58-.87,1.21-1.24,1.85-.24,.4-.44,.37-.72,.11-2.05-1.87-4.04-3.81-5.45-6.23-1.4-2.4-1.32-5.91,.85-8.1,2.8-2.82,5.79-5.43,8.75-8.07,1.43-1.27,2.85-2.55,4.38-3.7,1.12-.84,2.37-1.23,3.94-1.13Z"/><path class="cls-3" d="M90.72,82.81h-16.46c-1.18,0-2.14-.96-2.14-2.14v-19.75c0-1.18,.96-2.14,2.14-2.14s2.14,.96,2.14,2.14v17.62h14.32c1.18,0,2.14,.96,2.14,2.14s-.96,2.14-2.14,2.14Z"/></g></svg>