<?xml version="1.0" encoding="UTF-8"?><svg id="Capa_1" xmlns="http://www.w3.org/2000/svg" xmlns:xlink="http://www.w3.org/1999/xlink" viewBox="0 0 150 150"><defs><style>.cls-1{fill:#fff;filter:url(#drop-shadow-4);}</style><filter id="drop-shadow-4" filterUnits="userSpaceOnUse"><feOffset dx="3" dy="3"/><feGaussianBlur result="blur" stdDeviation="3"/><feFlood flood-color="#000" flood-opacity=".2"/><feComposite in2="blur" operator="in"/><feComposite in="SourceGraphic"/></filter></defs><path class="cls-1" d="M126.43,21.34h-41.14c-.31-.15-.66-.25-1.04-.25s-.72,.09-1.04,.25H23.65c-1.32,0-2.39,1.07-2.39,2.39v53.66c-.05,.19-.08,.38-.08,.59s.03,.4,.08,.59v47.95c0,1.32,1.07,2.39,2.39,2.39h47.56c1.32,0,2.39-1.07,2.39-2.39s-1.07-2.39-2.39-2.39H26.04v-43.75h30.37v22.4c0,1.32,1.07,2.39,2.39,2.39s2.39-1.07,2.39-2.39V59.71c0-1.32-1.07-2.39-2.39-2.39s-2.39,1.07-2.39,2.39v15.88H26.04V26.13h55.82V61.01c0,1.32,1.07,2.39,2.39,2.39h24.47c1.32,0,2.39-1.07,2.39-2.39s-1.07-2.39-2.39-2.39h-22.08V26.13h37.39V95.81h-32.6c-1.32,0-2.39,1.07-2.39,2.39s1.07,2.39,2.39,2.39h32.6v25.91c0,1.32,1.07,2.39,2.39,2.39s2.39-1.07,2.39-2.39V23.73c0-1.32-1.07-2.39-2.39-2.39Z"/></svg>