<?xml version="1.0" encoding="UTF-8"?><svg id="Capa_1" xmlns="http://www.w3.org/2000/svg" xmlns:xlink="http://www.w3.org/1999/xlink" viewBox="0 0 150 150"><defs><style>.cls-1{fill:#b2ce3a;}.cls-2{filter:url(#drop-shadow-2);}.cls-3{fill:#217c4c;}</style><filter id="drop-shadow-2" filterUnits="userSpaceOnUse"><feOffset dx="3" dy="3"/><feGaussianBlur result="blur" stdDeviation="3"/><feFlood flood-color="#000" flood-opacity=".2"/><feComposite in2="blur" operator="in"/><feComposite in="SourceGraphic"/></filter></defs><path class="cls-1" d="M135.95,75c-1.37,80.12-120.54,80.11-121.9,0,1.37-80.12,120.54-80.1,121.9,0Z"/><g class="cls-2"><g><path class="cls-3" d="M108.37,41.67c-6.87-5.15-14.53,2.87-9.14,9.49,6.86,5.14,14.51-2.87,9.14-9.49Z"/><path class="cls-3" d="M90.71,52.52c-30.51-18.66-58.59,24.49-30.53,44.96,30.51,18.68,58.6-24.49,30.53-44.96Zm-2.81,39.24c-22.99,14.97-45.51-16.5-24.92-33.5,23-14.99,45.52,16.5,24.92,33.5Z"/><path class="cls-3" d="M104.03,129.38H45.97c-14,0-25.35-11.35-25.35-25.35V45.97c0-14,11.35-25.35,25.35-25.35h58.05c14,0,25.35,11.35,25.35,25.35v58.05c0,14-11.35,25.35-25.35,25.35ZM44.13,27.09c-9.41,0-17.03,7.63-17.03,17.03v61.75c0,9.41,7.63,17.03,17.03,17.03h61.75c9.41,0,17.04-7.63,17.04-17.04V44.13c0-9.41-7.63-17.03-17.03-17.03H44.13Z"/></g></g></svg>