<?xml version="1.0" encoding="UTF-8"?><svg id="Capa_1" xmlns="http://www.w3.org/2000/svg" xmlns:xlink="http://www.w3.org/1999/xlink" viewBox="0 0 150 150"><defs><style>.cls-1{fill:#b2ce3a;}.cls-2{fill:#217c4c;fill-rule:evenodd;filter:url(#drop-shadow-2);}</style><filter id="drop-shadow-2" filterUnits="userSpaceOnUse"><feOffset dx="3" dy="3"/><feGaussianBlur result="blur" stdDeviation="3"/><feFlood flood-color="#000" flood-opacity=".2"/><feComposite in2="blur" operator="in"/><feComposite in="SourceGraphic"/></filter></defs><circle class="cls-1" cx="75" cy="75" r="60.95"/><path class="cls-2" d="M107.6,87.76c-3.62-2.17-8.34-4.59-12.61-2.84-3.27,1.34-5.37,6.47-7.49,9.08-1.09,1.34-2.39,1.55-4.06,.88-12.29-4.9-21.71-13.1-28.49-24.41-1.15-1.76-.94-3.14,.44-4.77,2.05-2.41,4.62-5.15,5.18-8.4,.55-3.25-.97-7.05-2.31-9.95-1.72-3.7-3.64-8.98-7.34-11.07-3.41-1.92-7.89-.85-10.93,1.62-5.24,4.27-7.77,10.95-7.69,17.58,.02,1.88,.25,3.76,.69,5.58,1.06,4.37,3.08,8.45,5.35,12.33,1.71,2.93,3.58,5.76,5.59,8.49,6.58,8.93,14.76,16.69,24.23,22.49,4.73,2.9,9.83,5.44,15.11,7.18,5.92,1.96,11.19,3.99,17.59,2.78,6.69-1.27,13.29-5.41,15.95-11.86,.79-1.91,1.18-4.04,.74-6.05-.91-4.17-6.55-6.65-9.93-8.67Z"/></svg>