<?xml version="1.0" encoding="UTF-8"?><svg id="Capa_1" xmlns="http://www.w3.org/2000/svg" xmlns:xlink="http://www.w3.org/1999/xlink" viewBox="0 0 150 150"><defs><style>.cls-1{fill:#b2ce3a;}.cls-2,.cls-3{fill:#217c4c;}.cls-3{filter:url(#drop-shadow-6);}</style><filter id="drop-shadow-6" filterUnits="userSpaceOnUse"><feOffset dx="3" dy="3"/><feGaussianBlur result="blur" stdDeviation="3"/><feFlood flood-color="#000" flood-opacity=".2"/><feComposite in2="blur" operator="in"/><feComposite in="SourceGraphic"/></filter></defs><path class="cls-1" d="M135.95,75c-1.37,80.12-120.54,80.11-121.9,0,1.37-80.12,120.54-80.1,121.9,0Z"/><path class="cls-2" d="M59.86,61.55c-19.35,0-35.09,15.74-35.09,35.09s15.74,35.09,35.09,35.09,35.09-15.74,35.09-35.09V39.75l3.67,5.61c5.67,8.66,15.24,13.83,25.59,13.83h0c.34,0,.68,0,1.02-.02v-16.64c-15.24-1.93-27.38-13.71-29.77-28.89h-13.74l-.18,83.24c0,11.21-9.93,20.69-21.69,20.69s-20.93-9.39-20.93-20.93,9.39-20.93,20.93-20.93c.1,0,.2,0,.29,0v-14.17c-.1,0-.19,0-.29,0Z"/><path class="cls-3" d="M127.22,63.35c-1,.1-2,.15-3,.15-10.99,0-21.25-5.54-27.27-14.74v50.19c0,20.49-16.61,37.09-37.09,37.09s-37.09-16.61-37.09-37.09,16.61-37.09,37.09-37.09h0c.77,0,1.53,.07,2.29,.12v18.28c-.76-.09-1.51-.23-2.29-.23-10.46,0-18.93,8.48-18.93,18.93s8.48,18.93,18.93,18.93,19.69-8.24,19.69-18.7l.18-85.23h17.49c1.65,15.68,14.29,27.93,30.02,29.08v20.31h-.02Z"/></svg>