<?xml version="1.0" encoding="UTF-8"?><svg id="Capa_1" xmlns="http://www.w3.org/2000/svg" xmlns:xlink="http://www.w3.org/1999/xlink" viewBox="0 0 150 150"><defs><style>.cls-1{filter:url(#drop-shadow-6);}.cls-2{fill:#b2ce3a;}.cls-3{fill:#217c4c;}</style><filter id="drop-shadow-6" filterUnits="userSpaceOnUse"><feOffset dx="3" dy="3"/><feGaussianBlur result="blur" stdDeviation="3"/><feFlood flood-color="#000" flood-opacity=".2"/><feComposite in2="blur" operator="in"/><feComposite in="SourceGraphic"/></filter></defs><circle class="cls-2" cx="75" cy="75" r="62.29"/><g class="cls-1"><path class="cls-3" d="M131,121.92c-.06-.22-.16-.42-.29-.61-.68-1.01-2.04-3.14-3.62-5.6-7.17-11.22-11.11-17.17-12.71-18.51-1.59-1.34-3.54-2.05-5.65-2.05h-23.3c3.66-5.95,7.87-11.93,11.45-17.01,3.77-5.35,6.75-9.58,8.13-12.34,2.34-4.68,3.53-9.73,3.53-15,0-8.96-3.49-17.39-9.83-23.72-6.34-6.34-14.76-9.83-23.72-9.83-18.5,0-33.55,15.05-33.55,33.55,0,5.27,1.19,10.31,3.53,15,1.52,3.03,4.89,8.2,8.8,14.2,3.08,4.73,6.5,9.97,9.67,15.15h-22.19c-2.1,0-4.06,.71-5.65,2.04-1.6,1.34-5.53,7.29-12.71,18.51-1.58,2.47-2.94,4.6-3.62,5.61-.13,.19-.22,.39-.29,.61-.66,2.22-.25,4.47,1.14,6.34,1.66,2.23,4.5,3.61,7.4,3.61H122.46c2.9,0,5.73-1.38,7.39-3.6,1.4-1.87,1.81-4.13,1.15-6.35ZM48.9,63.84c-2.04-4.07-3.07-8.46-3.07-13.04,0-16.08,13.09-29.17,29.17-29.17,7.79,0,15.12,3.03,20.63,8.54,5.51,5.51,8.54,12.83,8.54,20.63,0,4.58-1.03,8.97-3.07,13.04-1.24,2.47-4.28,6.78-7.8,11.78-6.32,8.97-14.6,20.72-18.62,30.6-4.4-8.92-11.41-19.68-17.24-28.62-3.84-5.88-7.15-10.96-8.55-13.77Zm77.45,61.81c-.82,1.1-2.38,1.84-3.88,1.84H27.54c-1.5,0-3.06-.74-3.89-1.85-.5-.68-.68-1.41-.52-2.19,.75-1.12,1.97-3.03,3.47-5.38,3.38-5.29,10.41-16.29,11.83-17.52,.81-.68,1.74-1.02,2.83-1.02h23.91c.28,0,.55-.06,.8-.16,2.9,4.95,5.41,9.7,6.98,13.7,.33,.84,1.14,1.39,2.04,1.39,.05,0,.11,0,.16,0,.95-.07,1.75-.75,1.97-1.68,.92-3.9,3.04-8.48,5.72-13.24h25.88c1.09,0,2.01,.33,2.82,1.02,1.43,1.23,8.46,12.24,11.84,17.52,1.5,2.35,2.72,4.25,3.47,5.38,.16,.79-.02,1.53-.53,2.2Z"/><path class="cls-3" d="M92.73,50.45c0-9.78-7.95-17.73-17.73-17.73s-17.73,7.95-17.73,17.73,7.95,17.73,17.73,17.73,17.73-7.95,17.73-17.73Zm-31.08,0c0-7.36,5.99-13.35,13.35-13.35s13.35,5.99,13.35,13.35-5.99,13.35-13.35,13.35-13.35-5.99-13.35-13.35Z"/></g></svg>