<?xml version="1.0" encoding="UTF-8"?><svg id="Capa_1" xmlns="http://www.w3.org/2000/svg" xmlns:xlink="http://www.w3.org/1999/xlink" viewBox="0 0 150 150"><defs><style>.cls-1{fill:#b2ce3a;}.cls-2{filter:url(#drop-shadow-2);}.cls-3{fill:#217c4c;}</style><filter id="drop-shadow-2" filterUnits="userSpaceOnUse"><feOffset dx="3" dy="3"/><feGaussianBlur result="blur" stdDeviation="3"/><feFlood flood-color="#000" flood-opacity=".2"/><feComposite in2="blur" operator="in"/><feComposite in="SourceGraphic"/></filter></defs><circle class="cls-1" cx="75.52" cy="75" r="60.95"/><g class="cls-2"><path class="cls-3" d="M111.18,73.05c.89,0,1.61-1.03,1.61-2.3v-10.14c0-1.27-.72-2.3-1.61-2.3H39.85c-.89,0-1.61,1.03-1.61,2.3v10.14c0,1.27,.72,2.3,1.61,2.3h15.22v42.23c0,1.27,.72,2.3,1.61,2.3h7.13c.89,0,1.61-1.03,1.61-2.3v-20.84h20.17v20.84c0,1.27,.72,2.3,1.61,2.3h7.13c.89,0,1.61-1.03,1.61-2.3v-42.23h15.22Zm-68.25-10.14H108.1v5.55H42.93v-5.55Zm18.76,50.08h-2.88v-39.94h2.88v39.94Zm30.66,0h-2.88v-39.94h2.88v39.94Zm-26.92-23.14v-16.8h20.17v16.8h-20.17Z"/><path class="cls-3" d="M45.95,84.78H17.63l-7.49-29.64c-.31-1.23-1.56-1.97-2.79-1.66-1.23,.31-1.97,1.56-1.66,2.79l7.85,31.1v9.54l-4.99,17.76c-.34,1.22,.37,2.49,1.59,2.83,.21,.06,.42,.09,.62,.09,1,0,1.93-.66,2.21-1.68l4.6-16.39h19.97l4.6,16.39c.28,1.01,1.21,1.68,2.21,1.68,.21,0,.41-.03,.62-.09,1.22-.34,1.93-1.61,1.59-2.83l-4.25-15.15h3.63c1.27,0,2.3-1.03,2.3-2.3v-10.14c0-1.27-1.03-2.3-2.3-2.3Zm-2.3,10.14H18.14v-5.55h25.51v5.55Z"/><path class="cls-3" d="M144.3,56.27c.31-1.23-.43-2.48-1.66-2.79-1.23-.31-2.48,.43-2.79,1.66l-7.49,29.64h-28.32c-1.27,0-2.3,1.03-2.3,2.3v10.14c0,1.27,1.03,2.3,2.3,2.3h3.63l-4.25,15.15c-.34,1.22,.37,2.49,1.59,2.83,.21,.06,.42,.09,.62,.09,1,0,1.93-.66,2.21-1.68l4.6-16.39h19.97l4.6,16.39c.28,1.01,1.21,1.68,2.21,1.68,.21,0,.41-.03,.62-.09,1.22-.34,1.93-1.61,1.59-2.83l-4.99-17.76v-9.54l7.85-31.1Zm-12.45,38.66h-25.52v-5.55h25.52v5.55Z"/></g></svg>