<?xml version="1.0" encoding="UTF-8"?><svg id="Capa_1" xmlns="http://www.w3.org/2000/svg" xmlns:xlink="http://www.w3.org/1999/xlink" viewBox="0 0 925.47 477.24"><defs><style>.cls-1{fill:url(#Degradado_sin_nombre_6);filter:url(#drop-shadow-1);}</style><linearGradient id="Degradado_sin_nombre_6" x1="915.02" y1="238.62" x2="10.45" y2="238.62" gradientUnits="userSpaceOnUse"><stop offset="0" stop-color="#ff772c"/><stop offset="1" stop-color="#ffb32c"/></linearGradient><filter id="drop-shadow-1" filterUnits="userSpaceOnUse"><feOffset dx="0" dy="3"/><feGaussianBlur result="blur" stdDeviation="3"/><feFlood flood-color="#000" flood-opacity=".3"/><feComposite in2="blur" operator="in"/><feComposite in="SourceGraphic"/></filter></defs><path class="cls-1" d="M915.02,135.66c-29.99,0-61.73,24.31-70.89,54.3l-44.81,146.24c-9.17,29.98-40.91,54.29-70.9,54.29l-610.87-3.59h-.08c-16.22,.67-53,3.23-77.81,26.44-17.33,16.22-23.3,29.29-29.21,54.54l1.46-165.77c0-115.45,48.54-163.43,141-166.33,.01,0,.02-.01,.03,0,1.87-.06,3.75-.1,5.65-.12h402.15c28.06,0,42.83,0,53.86-15.53,23.29-32.8,50.98-19.82,68.62-58.6,14.68,27.9-.28,46.82-12.22,63.59-14.16,19.88,16.48,34.49,21.12,12.72,28.48-133.39,144.4-35.24,200.92-128.49,6.08,88.92-74.96,115.51-97.26,124.19-25.97,10.09,1.09,41.22,16.01,20.4,14.31-19.96,56.33-42.88,103.23-18.28Z"/></svg>