<svg width="23" height="17" viewBox="0 0 23 17" fill="none" xmlns="http://www.w3.org/2000/svg">
<path d="M22.8062 9.61354C22.8083 9.27192 22.7086 8.93651 22.5183 8.64472C22.3281 8.35293 22.0547 8.11625 21.7288 7.9611C20.9139 7.61106 20.0222 7.44502 19.1258 7.47638H7.67548C7.59361 7.09755 7.40647 6.74549 7.13285 6.45554L5.50496 4.77372C5.29864 4.55737 5.04866 4.38114 4.76933 4.25512C4.48999 4.12909 4.18679 4.05576 3.87706 4.0393H3.58609C3.43664 4.03298 3.28726 4.05291 3.14569 4.09806V3.20207C3.14458 3.05341 3.11126 2.9065 3.04773 2.77018C2.98421 2.63387 2.8918 2.51097 2.77607 2.40889C3.01339 2.14565 3.1442 1.81295 3.14569 1.46884C3.14569 1.07928 2.97998 0.705673 2.68502 0.430213C2.39005 0.154752 1.98999 0 1.57285 0C1.1557 0 0.755644 0.154752 0.460678 0.430213C0.165713 0.705673 3.0047e-06 1.07928 3.0047e-06 1.46884C-0.000715019 1.81203 0.127276 2.14463 0.361757 2.40889C0.248514 2.51235 0.158263 2.63568 0.0961841 2.77179C0.0341049 2.9079 0.00141923 3.05413 3.0047e-06 3.20207V16.4804C0.00206504 16.5901 0.0502011 16.6947 0.134044 16.7716C0.217887 16.8486 0.330728 16.8916 0.448263 16.8916H2.02111C2.13212 16.8902 2.23863 16.8504 2.31999 16.7798C2.40135 16.7093 2.45178 16.613 2.4615 16.5097C2.54196 15.5602 2.91933 14.6536 3.54677 13.9025H4.71853C4.82621 13.8891 4.925 13.8397 4.99656 13.7634C5.06811 13.687 5.10755 13.589 5.10755 13.4876C5.10755 13.3862 5.06811 13.2882 4.99656 13.2118C4.925 13.1355 4.82621 13.0861 4.71853 13.0727H0.88866V9.40056H6.83401V10.5022C6.83401 10.8099 6.96492 11.1051 7.19794 11.3227C7.43097 11.5403 7.74701 11.6626 8.07656 11.6626H21.5558C21.6753 11.6624 21.7943 11.6476 21.9097 11.6185V13.0873H8.65064C8.54297 13.1007 8.44418 13.1502 8.37262 13.2265C8.30107 13.3029 8.26163 13.4008 8.26163 13.5023C8.26163 13.6037 8.30107 13.7017 8.37262 13.778C8.44418 13.8544 8.54297 13.9038 8.65064 13.9172H19.2909C19.9184 14.6682 20.2957 15.5748 20.3762 16.5244C20.3859 16.6277 20.4364 16.7239 20.5177 16.7945C20.5991 16.8651 20.7056 16.9049 20.8166 16.9063H22.3894C22.507 16.9044 22.619 16.8594 22.7013 16.7811C22.7837 16.7028 22.8299 16.5975 22.8298 16.4877L22.8062 9.61354ZM3.14569 5.45673C3.14569 5.28047 3.14569 5.09687 3.27938 4.96467C3.41307 4.83248 3.62541 4.87654 3.81415 4.89123C4.00846 4.89781 4.19948 4.94011 4.37625 5.01573C4.55303 5.09134 4.71211 5.19877 4.84436 5.33188L6.47226 7.0137C6.60728 7.15847 6.70849 7.32795 6.76943 7.51131C6.83036 7.69467 6.84968 7.88788 6.82615 8.07861C6.83659 8.15326 6.82856 8.22917 6.80265 8.30047C6.77675 8.37177 6.73367 8.43657 6.67673 8.48988C6.61351 8.53148 6.54162 8.56017 6.46574 8.57409C6.38986 8.58801 6.31169 8.58684 6.23633 8.57067C6.03019 8.57212 5.82596 8.53372 5.63648 8.45788C5.447 8.38205 5.27638 8.27042 5.13534 8.13001L3.50744 6.45554C3.25309 6.17882 3.12343 5.82083 3.14569 5.45673ZM0.88866 8.58535V3.20207C0.88866 3.13194 0.918488 3.0647 0.971581 3.01511C1.02468 2.96553 1.09669 2.93767 1.17177 2.93767H1.95819C1.99434 2.93767 2.03013 2.94432 2.06353 2.95724C2.09692 2.97016 2.12726 2.98909 2.15282 3.01296C2.17838 3.03683 2.19866 3.06517 2.21249 3.09635C2.22632 3.12754 2.23344 3.16097 2.23344 3.19472V8.57801L0.88866 8.58535ZM3.14569 7.34419L4.35678 8.60739H3.14569V7.34419ZM1.57285 0.829893C1.70817 0.829893 1.84045 0.867367 1.95296 0.937575C2.06547 1.00778 2.15317 1.10757 2.20495 1.22432C2.25674 1.34108 2.27029 1.46955 2.24389 1.59349C2.21749 1.71743 2.15233 1.83128 2.05664 1.92064C1.96095 2.01 1.83904 2.07085 1.70633 2.0955C1.57361 2.12016 1.43604 2.10751 1.31102 2.05914C1.186 2.01078 1.07915 1.92889 1.00397 1.82382C0.928787 1.71874 0.88866 1.59521 0.88866 1.46884C0.88866 1.29938 0.960744 1.13686 1.08905 1.01704C1.21736 0.89721 1.39139 0.829893 1.57285 0.829893ZM1.57285 16.0617H0.865067V13.9099H2.35927C1.96101 14.5773 1.69462 15.3062 1.57285 16.0617ZM8.05296 10.8327C7.95911 10.8327 7.86909 10.7979 7.80273 10.7359C7.73636 10.6739 7.69907 10.5898 7.69907 10.5022V8.29893H19.1179C19.8749 8.26956 20.6289 8.40534 21.3199 8.69552C21.4984 8.78197 21.6479 8.91273 21.7519 9.07339C21.856 9.23407 21.9106 9.41843 21.9097 9.6062V10.5022C21.9097 10.5898 21.8724 10.6739 21.8061 10.7359C21.7397 10.7979 21.6497 10.8327 21.5558 10.8327H8.05296ZM21.2334 16.0617C21.1116 15.3062 20.8452 14.5773 20.447 13.9099H21.9412V16.0617H21.2334Z" fill="white"/>
<path d="M7.07795 13.3368C7.04347 13.2624 6.98623 13.1992 6.9134 13.1551C6.84058 13.111 6.75543 13.0879 6.66865 13.0889C6.58186 13.0898 6.49731 13.1147 6.42561 13.1604C6.35392 13.2061 6.29827 13.2705 6.26566 13.3456C6.23305 13.4207 6.22494 13.5032 6.24234 13.5826C6.25973 13.662 6.30187 13.7348 6.36345 13.7919C6.42503 13.8491 6.5033 13.8879 6.58845 13.9036C6.6736 13.9193 6.76181 13.9112 6.84202 13.8802C6.94974 13.8366 7.0348 13.7551 7.07891 13.6535C7.12303 13.5519 7.12269 13.4382 7.07795 13.3368Z" fill="white"/>
</svg>
