<?xml version="1.0" encoding="UTF-8"?><svg id="Capa_1" xmlns="http://www.w3.org/2000/svg" xmlns:xlink="http://www.w3.org/1999/xlink" viewBox="0 0 150 150"><defs><style>.cls-1{fill:#b2ce3a;}.cls-2{fill:#217c4c;filter:url(#drop-shadow-2);}</style><filter id="drop-shadow-2" filterUnits="userSpaceOnUse"><feOffset dx="3" dy="3"/><feGaussianBlur result="blur" stdDeviation="3"/><feFlood flood-color="#000" flood-opacity=".2"/><feComposite in2="blur" operator="in"/><feComposite in="SourceGraphic"/></filter></defs><circle class="cls-1" cx="75" cy="75" r="60.95"/><path class="cls-2" d="M132.47,101.72l-11.68-37.14c-.13-.41-.38-.77-.7-1.04,.3-.38,.49-.86,.49-1.38V28.88c0-5.31-4.18-9.63-9.32-9.63H38.74c-5.14,0-9.32,4.32-9.32,9.63V62.16c0,.57,.22,1.09,.57,1.48-.26,.25-.46,.57-.58,.92l-11.88,37.14c-.19,.58-.12,1.21,.16,1.74-.06,.21-.11,.42-.11,.65v24.4c0,1.24,1,2.24,2.24,2.24h15.59c1.24,0,2.24-1,2.24-2.24v-10.12H112.35v10.12c0,1.24,1,2.24,2.24,2.24h15.59c1.24,0,2.24-1,2.24-2.24v-24.4c0-.23-.04-.45-.11-.66,.28-.53,.34-1.15,.16-1.73ZM38.74,23.73H111.26c2.67,0,4.84,2.31,4.84,5.15V62.16c0,.09,.02,.18,.03,.27-1.57-.3-3.28-.57-5.13-.82,.07-.22,.12-.44,.12-.68v-6.6c0-5.73-4.51-10.4-10.06-10.4h-17.72c-3.47,0-6.54,1.83-8.35,4.6-1.81-2.77-4.87-4.6-8.35-4.6h-17.72c-5.55,0-10.06,4.66-10.06,10.4v6.6c0,.34,.08,.66,.22,.95-1.78,.23-3.53,.47-5.24,.74,.03-.14,.04-.29,.04-.45V28.88c0-2.84,2.17-5.15,4.84-5.15Zm33.54,35.97c-9.71,.13-19.69,.67-28.97,1.67,.03-.15,.05-.3,.05-.46v-6.6c0-3.26,2.5-5.92,5.58-5.92h17.72c3.08,0,5.58,2.65,5.58,5.92v4.94c0,.15,.02,.3,.04,.44Zm34.39,1.37c-8.22-.89-18.3-1.39-28.94-1.41,.02-.13,.04-.27,.04-.41v-4.94c0-3.21,2.56-5.92,5.58-5.92h17.72c3.08,0,5.58,2.65,5.58,5.92v6.6c0,.05,.01,.1,.02,.16Zm-73.4,6.16c27.19-4.42,66.87-3.68,83.64-.08l10.38,33H22.73l10.53-32.92Zm83.56,59.03v-10.12c0-1.24-1-2.24-2.24-2.24H35.42c-1.24,0-2.24,1-2.24,2.24v10.12h-11.11v-21.63H127.94v21.63h-11.11Z"/></svg>