<?xml version="1.0" encoding="UTF-8"?><svg id="Capa_1" xmlns="http://www.w3.org/2000/svg" viewBox="0 0 1657.68 319.06"><defs><style>.cls-1{fill:#c3c4c4;}.cls-2{fill:#fff;}.cls-3{fill:#98bd1e;}.cls-4{fill:#020101;}</style></defs><g><g><path class="cls-3" d="M257.17,50.5c0-19.5-15.81-35.31-35.31-35.31H51.86c-19.5,0-35.31,15.81-35.31,35.31v53.03L96.83,59.96s8.11-6.28,17.23,0l67.35,46.37v-16.99s.15-4.9,4.9-4.9h19.35s3.95,.02,4.4,4.9v36.71l47.1,32.43V50.5Z"/><path class="cls-1" d="M257.17,195.3L111.16,120.94s-4.77-3.15-12.07-.55l-82.54,20.56v130.08c0,19.5,15.81,35.31,35.31,35.31H221.86c19.5,0,35.31-15.81,35.31-35.31v-75.74Z"/><path class="cls-2" d="M16.54,140.96v-37.43L96.83,59.96s8.11-6.28,17.23,0l67.35,46.37v-16.99s.15-4.9,4.9-4.9h19.35s3.95,.02,4.4,4.9v36.71l47.1,32.43v36.8L111.16,120.94s-4.77-3.15-12.07-.55l-82.54,20.56Z"/></g><g><path class="cls-4" d="M160.07,226.91h-23.21v-29.82h31.44c3.1,0,5.62-2.52,5.62-5.62h0c0-3.1-2.52-5.62-5.62-5.62h-35.55c-3.66,0-6.62,2.97-6.62,6.62v34.68h-15.82v-79.18c0-2.9-2.35-5.25-5.25-5.25h0c-2.9,0-5.25,2.35-5.25,5.25v82.9c0,3.66,2.97,6.62,6.62,6.62h19.76v35.21c0,3.66,2.97,6.62,6.62,6.62h35.52c3.09,0,5.59-2.5,5.59-5.59h0c0-3.09-2.5-5.59-5.59-5.59h-31.47v-30.66h23.21s-2.44-2.44-2.21-5.56c0,0,.03-3.14,2.21-5.03Z"/><path class="cls-4" d="M173.91,232.2c0,3.01-2.44,5.45-5.45,5.45s-5.45-2.44-5.45-5.45,2.44-5.45,5.45-5.45,5.45,2.44,5.45,5.45Z"/></g></g><g><path class="cls-2" d="M370.38,20.95v110.91h55.05v21.61h-67.89c-3.54-.27-6.25-1.36-8.16-3.26-1.9-1.9-2.85-4.01-2.85-6.32V20.95h23.86Z"/><path class="cls-2" d="M526.64,153.48l-9.21-29.7h-44.04l-9.83,29.7h-25.08l44-124.04c.67-2.29,2.18-4.27,4.54-5.96,2.36-1.68,5.22-2.52,8.59-2.52s6.06,.84,8.48,2.52c2.43,1.69,3.97,3.67,4.65,5.96l43.12,124.04h-25.22Zm12,0-58.99-49.5h31.51l-15.56-50.1-15.96,50.1Z"/><path class="cls-2" d="M1252.69,153.48l-9.21-29.7h-44.04l-9.83,29.7h-25.08l44-124.04c.67-2.29,2.18-4.27,4.54-5.96,2.36-1.68,5.22-2.52,8.59-2.52s6.06,.84,8.48,2.52c2.43,1.69,3.97,3.67,4.65,5.96l43.12,124.04h-25.22Zm12,0-58.99-49.5h31.51l-15.56-50.1-15.96,50.1Z"/><path class="cls-2" d="M1616.13,153.48l-9.21-29.7h-44.04l-9.83,29.7h-25.08l44-124.04c.67-2.29,2.18-4.27,4.54-5.96,2.36-1.68,5.22-2.52,8.59-2.52s6.06,.84,8.48,2.52c2.43,1.69,3.97,3.67,4.65,5.96l43.12,124.04h-25.22Zm12,0-58.99-49.5h31.51l-15.56-50.1-15.96,50.1Z"/><path class="cls-2" d="M711.92,153.48h-69.99c-3.73,0-6.73-1-9.01-3-2.28-2-3.42-4.24-3.42-6.73V30.68c0-2.48,1.14-4.73,3.42-6.73,2.28-2,5.28-3,9.01-3h69.99v21.95h-58.18v32.51h43.07v21.95h-43.07v34.17h58.18v21.95Z"/><path class="cls-2" d="M1031.25,153.48h-69.99c-3.73,0-6.73-1-9.01-3-2.28-2-3.42-4.24-3.42-6.73V30.68c0-2.48,1.14-4.73,3.42-6.73,2.28-2,5.28-3,9.01-3h69.99v21.95h-58.18v32.51h43.07v21.95h-43.07v34.17h58.18v21.95Z"/><path class="cls-2" d="M818.42,41.8l-14.02,16.18-6.19-5.37c-1.5-1.21-3.18-2.58-4.66-3.79-1.62-1.35-4.11-2.9-7.48-4.65-3.37-1.75-7.88-2.62-13.54-2.62-4.85,0-8.82,1.31-11.92,3.94-3.1,2.62-4.65,6.43-4.65,11.41,0,4.31,1.45,7.75,4.35,10.3,2.89,2.56,6.53,4.85,10.91,6.87,4.38,2.02,9.12,4.04,14.24,6.06,5.12,2.02,9.86,4.54,14.24,7.57,4.37,3.03,8.01,6.84,10.91,11.41,2.9,4.58,4.34,10.51,4.34,17.78,0,11.31-3.71,20.23-11.11,26.76-7.41,6.53-17.65,9.8-30.71,9.8-2.02,0-4.51-.24-7.47-.71-2.96-.47-6.06-1.18-9.29-2.12-3.23-.94-6.43-2.09-9.6-3.43-3.16-1.35-5.98-3-8.58-4.75-5.41-3.65-11.5-9.75-13.12-12.04l13.27-16.45c2.29,2.16,10.47,11.15,22.27,16.57,4.09,1.88,8.62,2.52,13.33,2.52,5.38,0,9.63-1.18,12.73-3.53,3.1-2.36,4.65-6.09,4.65-11.21,0-4.31-1.45-7.84-4.35-10.61-2.9-2.76-6.56-5.22-11.01-7.37-4.45-2.15-9.19-4.25-14.24-6.26-5.05-2.02-9.8-4.55-14.24-7.58-4.44-3.03-8.12-6.8-11.01-11.31-2.9-4.51-4.35-10.27-4.35-17.27,0-5.66,.94-10.78,2.83-15.35,1.89-4.58,4.58-8.55,8.08-11.92,3.5-3.37,7.81-5.96,12.93-7.78,5.12-1.82,10.91-2.73,17.38-2.73s12.63,.84,17.68,2.52c5.05,1.69,9.29,3.74,12.73,6.16,3.43,2.43,6.35,5.23,8.69,7.35l5.97,5.62Z"/><path class="cls-2" d="M839.11,153.48V30.59c0-2.46,1.13-4.68,3.38-6.67,2.26-1.98,5.23-2.98,8.93-2.98h26.88c8.62,0,16.07,1.1,22.36,3.28,6.29,2.19,11.49,5.23,15.59,9.13,4.1,3.9,7.11,8.45,9.02,13.64,1.92,5.2,2.87,10.8,2.87,16.82v2.26c0,5.2-.89,10.19-2.67,14.98-1.78,4.79-4.65,9.03-8.62,12.72-3.97,3.69-9.1,6.67-15.38,8.93-6.3,2.26-14.02,3.38-23.18,3.38h-15.18v47.39h-24Zm24-112.01v44.93h15.18c4.51,0,8.41-.55,11.69-1.64,3.28-1.09,5.98-2.53,8.1-4.31,2.12-1.78,3.69-3.83,4.72-6.16,1.03-2.32,1.54-4.72,1.54-7.18v-4.72c0-5.88-2.05-10.84-6.15-14.87-4.1-4.03-10.74-6.05-19.9-6.05h-15.18Z"/><path class="cls-2" d="M1125.25,153.48l-24.69-52.92c-1.1,.14-2.26,.2-3.49,.2h-21.13v52.72h-24V30.6c0-2.46,1.13-4.68,3.38-6.67,2.26-1.98,5.23-2.97,8.93-2.97h28.93c9.16,0,16.95,.96,23.38,2.87,6.43,1.92,11.59,4.61,15.49,8.1,3.9,3.49,6.73,7.66,8.51,12.51,1.78,4.86,2.66,10.29,2.66,16.31v1.43c0,6.98-1.61,12.96-4.82,17.95-3.22,5-8.86,8.99-16.93,12l29.99,61.34h-26.22Zm-49.31-112v39.59h17.23c9.3,0,15.96-1.57,20-4.72,4.03-3.15,6.05-7.18,6.05-12.11v-3.9c0-5.88-2.02-10.49-6.05-13.85-4.04-3.35-10.7-5.02-20-5.02h-17.23Z"/><path class="cls-2" d="M1399.81,144.07c-.4,10.15-11.61,9.41-11.61,9.41-7.77,0-11.22-5.45-11.22-5.45l-.6-1.01-54.14-78.59v85.05h-23.64V30.44c0-10.53,11.08-9.49,11.08-9.49,7.64-.61,12.36,7.68,12.36,7.68l54.35,79.4V20.95h23.44v123.12Z"/><path class="cls-2" d="M1503.04,20.92c6.99,.09,11.78,7.62,9.15,14.1-.9,2.22-1.8,3.55-1.8,3.55l-59.11,93.38h63.62v20.32h-84.14c-2.74,0-5.13-.82-7.18-2.46-2.05-1.64-3.08-4.1-3.08-7.39s.73-4.44,2.87-7.8l59.11-93.38h-60.19V20.92h80.51c.08,0,.16,0,.24,0Z"/></g><g><polygon class="cls-2" points="355.25 233.93 345.66 233.93 345.66 301.04 391.59 301.04 391.59 292.7 355.25 292.7 355.25 233.93"/><path class="cls-2" d="M422.85,233.93l-30.39,67.12h9.88l7.37-16.78h35.69l7.37,16.78h10.07l-30.49-67.12h-9.49Zm-9.77,42.67l14.47-32.93,14.47,32.93h-28.95Z"/><polygon class="cls-2" points="562.06 233.93 534.44 281.07 506.45 233.93 498.59 233.93 498.59 301.04 507.8 301.04 507.8 252.4 532.05 292.89 536.46 292.89 560.73 252.1 560.82 301.04 570.02 301.04 569.93 233.93 562.06 233.93"/><path class="cls-2" d="M610.39,233.93l-30.39,67.12h9.88l7.37-16.78h35.69l7.37,16.78h10.07l-30.49-67.12h-9.49Zm-9.77,42.67l14.47-32.93,14.47,32.93h-28.95Z"/><polygon class="cls-2" points="632.73 216 621.03 216 607.99 228.46 616.62 228.46 632.73 216"/><path class="cls-2" d="M697.88,268.73c-2.4-1.34-5.05-2.43-7.96-3.26-2.91-.83-5.8-1.58-8.68-2.25-2.88-.67-5.51-1.42-7.91-2.25-2.4-.83-4.35-1.95-5.85-3.36-1.5-1.41-2.25-3.29-2.25-5.66,0-1.98,.56-3.77,1.68-5.37,1.12-1.6,2.89-2.88,5.32-3.84,2.43-.96,5.53-1.44,9.3-1.44,3,0,6.1,.43,9.3,1.29,3.2,.86,6.23,2.25,9.11,4.17l3.16-7.67c-2.81-1.92-6.14-3.39-9.97-4.41-3.84-1.02-7.7-1.53-11.6-1.53-5.88,0-10.72,.88-14.53,2.64-3.8,1.76-6.62,4.09-8.44,7-1.82,2.91-2.73,6.09-2.73,9.54s.73,6.5,2.21,8.77c1.47,2.27,3.4,4.08,5.8,5.42,2.4,1.34,5.05,2.44,7.96,3.31,2.91,.86,5.8,1.62,8.68,2.25,2.88,.64,5.51,1.39,7.91,2.25,2.4,.86,4.35,2,5.85,3.4,1.5,1.41,2.25,3.26,2.25,5.56,0,1.98-.58,3.76-1.73,5.32-1.15,1.57-2.94,2.8-5.37,3.69-2.43,.9-5.59,1.34-9.49,1.34-4.28,0-8.41-.73-12.37-2.21-3.96-1.47-7.22-3.32-9.78-5.56l-3.55,7.48c2.68,2.49,6.36,4.52,11.03,6.09,4.67,1.57,9.56,2.35,14.67,2.35,5.88,0,10.75-.88,14.62-2.64,3.87-1.76,6.73-4.09,8.58-7,1.85-2.91,2.78-6.06,2.78-9.44s-.74-6.39-2.21-8.63c-1.47-2.24-3.4-4.03-5.8-5.37Z"/><path class="cls-2" d="M757.32,248.98c2.4-2.3,5.24-4.09,8.53-5.37,3.29-1.28,6.86-1.92,10.69-1.92s7.27,.62,10.5,1.87c3.23,1.25,6.22,3.21,8.96,5.9l5.94-5.94c-3.07-3.45-6.81-6.04-11.22-7.77s-9.27-2.59-14.57-2.59-10.04,.85-14.38,2.54c-4.35,1.69-8.13,4.09-11.36,7.19-3.23,3.1-5.74,6.73-7.53,10.88-1.79,4.16-2.69,8.73-2.69,13.71s.89,9.56,2.69,13.71c1.79,4.16,4.28,7.78,7.48,10.88,3.2,3.1,6.97,5.5,11.31,7.19,4.35,1.69,9.11,2.54,14.29,2.54,4.73,0,9.32-.72,13.76-2.16,4.44-1.44,8.33-3.56,11.65-6.38v-26.17h-9.2v21.83c-1.73,1.13-3.53,2.03-5.42,2.67-3.29,1.12-6.73,1.68-10.31,1.68-3.84,0-7.38-.64-10.64-1.92-3.26-1.28-6.09-3.08-8.49-5.42-2.4-2.33-4.25-5.08-5.56-8.25-1.31-3.16-1.97-6.57-1.97-10.21s.65-7.14,1.97-10.31c1.31-3.16,3.16-5.9,5.56-8.2Z"/><path class="cls-2" d="M860.92,277.84c4.15-1.85,7.35-4.52,9.59-8.01,2.24-3.48,3.36-7.65,3.36-12.51s-1.12-9.04-3.36-12.56c-2.24-3.51-5.43-6.2-9.59-8.05-4.16-1.85-9.17-2.78-15.05-2.78h-26.18v67.12h9.59v-20.42h16.59c1.48,0,2.9-.06,4.26-.18l14.43,20.6h10.45l-15.93-22.47c.63-.23,1.24-.47,1.83-.73Zm-15.34-5.37h-16.3v-30.2h16.3c6.14,0,10.79,1.31,13.95,3.93,3.16,2.62,4.75,6.33,4.75,11.12s-1.58,8.52-4.75,11.17c-3.16,2.65-7.81,3.98-13.95,3.98Z"/><path class="cls-2" d="M909.62,233.93l-30.39,67.12h9.88l7.37-16.78h35.69l7.37,16.78h10.07l-30.49-67.12h-9.49Zm-9.77,42.67l14.47-32.93,14.47,32.93h-28.94Z"/><polygon class="cls-2" points="1007.71 283.94 967.44 233.93 959.58 233.93 959.58 301.04 969.17 301.04 969.17 251.03 1009.44 301.04 1017.3 301.04 1017.3 233.93 1007.71 233.93 1007.71 283.94"/><path class="cls-2" d="M1084.66,238.14c-5.47-2.81-11.78-4.22-18.94-4.22h-28.29v67.12h28.29c7.16,0,13.47-1.41,18.94-4.22,5.46-2.81,9.71-6.74,12.75-11.79,3.04-5.05,4.55-10.9,4.55-17.55s-1.52-12.5-4.55-17.55c-3.04-5.05-7.29-8.98-12.75-11.79Zm4.36,42.52c-2.24,3.8-5.39,6.76-9.44,8.87-4.06,2.11-8.87,3.16-14.43,3.16h-18.12v-50.43h18.12c5.56,0,10.37,1.05,14.43,3.16,4.06,2.11,7.21,5.05,9.44,8.82,2.24,3.77,3.36,8.18,3.36,13.23s-1.12,9.38-3.36,13.18Z"/><polygon class="cls-2" points="1126.22 271.03 1159.87 271.03 1159.87 262.88 1126.22 262.88 1126.22 242.27 1163.99 242.27 1163.99 233.93 1116.63 233.93 1116.63 301.04 1165.34 301.04 1165.34 292.7 1126.22 292.7 1126.22 271.03"/><path class="cls-2" d="M1253.88,238.14c-5.47-2.81-11.78-4.22-18.94-4.22h-28.29v67.12h28.29c7.16,0,13.47-1.41,18.94-4.22,5.46-2.81,9.71-6.74,12.75-11.79,3.04-5.05,4.55-10.9,4.55-17.55s-1.52-12.5-4.55-17.55c-3.04-5.05-7.29-8.98-12.75-11.79Zm4.36,42.52c-2.24,3.8-5.39,6.76-9.44,8.87-4.06,2.11-8.87,3.16-14.43,3.16h-18.12v-50.43h18.12c5.56,0,10.37,1.05,14.43,3.16,4.06,2.11,7.21,5.05,9.44,8.82,2.24,3.77,3.36,8.18,3.36,13.23s-1.12,9.38-3.36,13.18Z"/><polygon class="cls-2" points="1295.45 271.03 1329.1 271.03 1329.1 262.88 1295.45 262.88 1295.45 242.27 1333.22 242.27 1333.22 233.93 1285.86 233.93 1285.86 301.04 1334.57 301.04 1334.57 292.7 1295.45 292.7 1295.45 271.03"/><polygon class="cls-2" points="1359.69 233.93 1350.1 233.93 1350.1 301.04 1396.03 301.04 1396.03 292.7 1359.69 292.7 1359.69 233.93"/><path class="cls-2" d="M1474.07,236.71c-4.16-1.85-9.17-2.78-15.05-2.78h-26.18v67.12h9.59v-20.33h16.59c5.88,0,10.9-.94,15.05-2.83,4.15-1.88,7.35-4.57,9.59-8.05,2.24-3.48,3.36-7.65,3.36-12.51s-1.12-9.04-3.36-12.56c-2.24-3.51-5.43-6.2-9.59-8.05Zm-1.39,31.74c-3.16,2.62-7.81,3.93-13.95,3.93h-16.3v-30.11h16.3c6.14,0,10.79,1.31,13.95,3.93,3.16,2.62,4.75,6.33,4.75,11.12s-1.58,8.5-4.75,11.12Z"/><path class="cls-2" d="M1517.98,233.93l-30.39,67.12h9.88l7.37-16.78h35.69l7.37,16.78h10.07l-30.49-67.12h-9.49Zm-9.77,42.67l14.47-32.93,14.47,32.93h-28.94Z"/><rect class="cls-2" x="1567.94" y="233.93" width="9.59" height="67.12"/><polygon class="cls-2" points="1565.54 228.46 1574.17 228.46 1590.28 216 1578.58 216 1565.54 228.46"/><path class="cls-2" d="M1641,274.1c-1.47-2.24-3.4-4.03-5.8-5.37-2.4-1.34-5.05-2.43-7.96-3.26-2.91-.83-5.8-1.58-8.68-2.25-2.88-.67-5.51-1.42-7.91-2.25-2.4-.83-4.35-1.95-5.85-3.36-1.5-1.41-2.25-3.29-2.25-5.66,0-1.98,.56-3.77,1.68-5.37,1.12-1.6,2.89-2.88,5.32-3.84,2.43-.96,5.53-1.44,9.3-1.44,3,0,6.1,.43,9.3,1.29,3.2,.86,6.23,2.25,9.11,4.17l3.16-7.67c-2.81-1.92-6.14-3.39-9.97-4.41-3.83-1.02-7.7-1.53-11.6-1.53-5.88,0-10.72,.88-14.53,2.64-3.8,1.76-6.62,4.09-8.44,7-1.82,2.91-2.73,6.09-2.73,9.54s.73,6.5,2.21,8.77c1.47,2.27,3.4,4.08,5.8,5.42,2.4,1.34,5.05,2.44,7.96,3.31,2.91,.86,5.8,1.62,8.68,2.25,2.88,.64,5.51,1.39,7.91,2.25,2.4,.86,4.35,2,5.85,3.4,1.5,1.41,2.25,3.26,2.25,5.56,0,1.98-.58,3.76-1.73,5.32-1.15,1.57-2.94,2.8-5.37,3.69-2.43,.9-5.59,1.34-9.49,1.34-4.28,0-8.41-.73-12.37-2.21-3.96-1.47-7.22-3.32-9.78-5.56l-3.55,7.48c2.69,2.49,6.36,4.52,11.03,6.09,4.67,1.57,9.56,2.35,14.67,2.35,5.88,0,10.75-.88,14.62-2.64,3.87-1.76,6.73-4.09,8.58-7,1.85-2.91,2.78-6.06,2.78-9.44s-.74-6.39-2.21-8.63Z"/></g></svg>