<?xml version="1.0" encoding="UTF-8"?><svg id="Capa_1" xmlns="http://www.w3.org/2000/svg" xmlns:xlink="http://www.w3.org/1999/xlink" viewBox="0 0 150 150"><defs><style>.cls-1{fill:#fff;}.cls-2{filter:url(#drop-shadow-3);}</style><filter id="drop-shadow-3" filterUnits="userSpaceOnUse"><feOffset dx="3" dy="3"/><feGaussianBlur result="blur" stdDeviation="3"/><feFlood flood-color="#000" flood-opacity=".2"/><feComposite in2="blur" operator="in"/><feComposite in="SourceGraphic"/></filter></defs><g class="cls-2"><path class="cls-1" d="M129.27,82.67H29.5c.54-.43,.89-1.08,.89-1.83V31.54c0-6.32,5.14-11.46,11.46-11.46s11.46,5.14,11.46,11.46c0,.05,.01,.1,.02,.15l-1.65,.6c-5.5,2-8.15,8.87-6.32,15.78l-1.64,.6c-1.22,.44-1.84,1.79-1.4,3,.35,.95,1.24,1.54,2.2,1.54,.27,0,.54-.05,.8-.14l32.15-11.7c1.22-.44,1.84-1.79,1.4-3-.44-1.22-1.79-1.84-3-1.4l-1.39,.51c-1.3-2.78-3.26-5.11-5.63-6.66-3.02-1.98-6.34-2.46-9.35-1.37l-1.58,.58c-.77-8.19-7.68-14.63-16.08-14.63-8.9,0-16.15,7.24-16.15,16.15v49.3c0,.74,.35,1.4,.89,1.83h-5.87c-1.29,0-2.34,1.05-2.34,2.34s1.05,2.34,2.34,2.34h4.51c.24,9.99,2.58,18.61,6.81,25,2.03,3.06,4.46,5.54,7.23,7.43-.45,.19-.85,.52-1.12,.97l-3.76,6.46c-.65,1.12-.27,2.55,.85,3.2,.37,.22,.78,.32,1.18,.32,.81,0,1.59-.42,2.03-1.16l3.76-6.46c.27-.47,.35-.98,.29-1.48,3.47,1.65,7.37,2.51,11.63,2.51h41.74c4.26,0,8.16-.86,11.63-2.51-.06,.5,.02,1.01,.29,1.48l3.76,6.46c.44,.75,1.22,1.16,2.03,1.16,.4,0,.81-.1,1.18-.32,1.12-.65,1.5-2.08,.85-3.2l-3.76-6.46c-.27-.46-.67-.78-1.12-.97,2.77-1.89,5.2-4.37,7.23-7.43,4.23-6.39,6.57-15.01,6.81-25h4.51c1.29,0,2.34-1.05,2.34-2.34s-1.05-2.34-2.34-2.34ZM61.11,33.85c1.58-.58,3.42-.26,5.18,.89,1.52,.99,2.83,2.53,3.76,4.35l-20.26,7.38c-1-4.38,.43-8.65,3.49-9.76l7.83-2.85Zm34.75,85.62H54.13c-17.24,0-23.77-16.28-24.21-32.11H120.08c-.44,15.84-6.96,32.11-24.21,32.11Z"/><path class="cls-1" d="M59.28,62.67c-.49,0-.95-.3-1.13-.79l-2.25-6.16c-.23-.63,.09-1.32,.72-1.55,.63-.23,1.32,.09,1.55,.72l2.25,6.16c.23,.63-.09,1.32-.72,1.55-.14,.05-.28,.07-.41,.07Z"/><path class="cls-1" d="M65.07,62.67c-.49,0-.95-.3-1.13-.79l-2.29-6.16c-.23-.62,.09-1.32,.71-1.55,.62-.23,1.32,.09,1.55,.71l2.29,6.16c.23,.62-.09,1.32-.71,1.55-.14,.05-.28,.08-.42,.08Z"/><path class="cls-1" d="M70.37,58.56c-.49,0-.95-.3-1.13-.78l-2.87-7.68c-.23-.62,.08-1.32,.71-1.55,.62-.23,1.32,.08,1.55,.71l2.87,7.68c.23,.62-.08,1.32-.71,1.55-.14,.05-.28,.08-.42,.08Z"/></g></svg>