<?xml version="1.0" encoding="UTF-8"?><svg id="Capa_1" xmlns="http://www.w3.org/2000/svg" xmlns:xlink="http://www.w3.org/1999/xlink" viewBox="0 0 150 150"><defs><style>.cls-1{filter:url(#drop-shadow-3);}.cls-2{fill:#b2ce3a;}.cls-3,.cls-4{fill:#217c4c;}.cls-4{filter:url(#drop-shadow-2);}</style><filter id="drop-shadow-2" filterUnits="userSpaceOnUse"><feOffset dx="3" dy="3"/><feGaussianBlur result="blur" stdDeviation="3"/><feFlood flood-color="#000" flood-opacity=".2"/><feComposite in2="blur" operator="in"/><feComposite in="SourceGraphic"/></filter><filter id="drop-shadow-3" filterUnits="userSpaceOnUse"><feOffset dx="3" dy="3"/><feGaussianBlur result="blur-2" stdDeviation="3"/><feFlood flood-color="#000" flood-opacity=".2"/><feComposite in2="blur-2" operator="in"/><feComposite in="SourceGraphic"/></filter></defs><circle class="cls-2" cx="75" cy="78.4" r="60.95"/><path class="cls-4" d="M132.78,110.07c-.07-.36-.28-.67-.59-.88-1.47-.97-3.84-2.6-6.12-4.18-2.55-1.76-4.96-3.42-5.92-4.02-.9-.56-1.58-.39-1.99-.16-.19,.11-.24,.12-.49-.07-1.85-1.38-3.82-2.84-6.02-4.46-1.2-.89-2.41-1.77-3.62-2.65-2.29-1.67-4.66-3.4-6.97-5.13-2.22-1.66-4.66-2.74-7.44-3.3-2.79-.56-5.62-.56-8.02-.5-2.06,.06-4.14,.16-6.16,.26-.87,.04-1.74,.09-2.61,.13h-.18c-2.8,.14-5.7,.27-8.53,.92l-3.82,.88c-4.25,.98-8.65,1.99-12.96,3.03-.35,.08-.38,.03-.5-.18-.87-1.51-1.95-2.77-3.22-3.74-2.39-1.83-4.97-2.52-7.67-2.06-1.11,.19-1.61,0-2.25-.83-2.72-3.55-7.48-4.77-11.83-3.04-1.71,.68-2.85,1.63-3.5,2.91-.03,.06-.08,.08-.3,.15l-.07,.02c-1.61,.46-2.81,1.07-3.8,1.92-1.33,1.16-1.68,2.58-1.01,4.1,.6,1.34,1.26,2.7,2.04,4.16,2.05,3.85,4.3,7.68,6.48,11.37l.98,1.66c1.23,2.09,2.8,4.47,5.18,6.3,2.54,1.96,5.2,3.16,8.12,3.68,2.63,.47,5.4,.71,7.63,.91,.34,.03,.68,.07,1.03,.1,.83,.09,1.69,.18,2.52,.18l1.8,.15c3.03,.25,7.19,.59,8.1,.65,3.85,.25,7.7,.51,11.55,.75,3.38,.21,6.76,.43,10.15,.62,3.94,.23,7.95,.46,11.92,.67,.38,.02,.63,.18,1.04,.52,.52,.43,1.04,.82,1.54,1.2,.85,.64,1.72,1.3,2.69,2.2,.19,.17,.35,.32,.49,.44,.16,.14,.35,.3,.4,.38-.01,.03-.04,.09-.12,.2-.28,.39-.8,1.16-1.19,1.73-.42,.62-.26,1.44,.36,1.86l12.46,8.56c.24,.17,.52,.25,.79,.25,.44,0,.87-.21,1.14-.59,3.6-5.15,15.57-22.24,18.28-26.08,.21-.3,.29-.66,.22-1.02Zm-89.82-12.15c-.98-.15-1.99-.3-3-.4-.57-.06-.87-.25-1.15-.75-2-3.48-3.56-6.12-5.04-8.57-1.09-1.8-2.59-3.2-4.46-4.18-.58-.3-1.18-.53-1.88-.73,.47-.2,.98-.32,1.59-.38,2.67-.27,4.79,.79,6.31,3.14,2.62,4.07,5.42,8.13,8.08,11.93-.15-.02-.29-.04-.44-.06Zm-9.6-3.17c.96,1.63,1.92,3.27,2.87,4.9,.39,.68,.96,1.05,1.79,1.16,4.16,.57,9.08,1.24,14.05,1.96,.34,.05,.68,.1,1.02,.15,2.06,.31,4.18,.62,6.35,.57,2.16-.05,4.28-.25,6.44-.46,2.98-.29,6.12-.76,10.2-1.53,.56-.11,1.05-.42,1.34-.85,.24-.37,.33-.8,.24-1.22-.22-1-1.16-1.58-2.24-1.38-3.34,.6-6.92,1.2-10.5,1.54-2.72,.26-5.79,.54-8.78,.24-3.04-.31-5.44-2.54-5.57-5.19-.04-.77-.01-.88,.87-1.09l5.41-1.26c3.65-.85,7.3-1.7,10.95-2.56,2.07-.49,4.82-1.05,7.71-1.05,.71,0,1.44-.04,2.13-.08,.18-.01,.35-.02,.53-.03h0s1.61-.07,1.61-.07c.85-.04,1.7-.08,2.55-.12l.64-.03c2.67-.11,5.42-.23,8.11,.05,2.81,.29,5.08,1.07,6.95,2.37,.99,.69,1.98,1.43,2.93,2.14,.46,.34,.91,.68,1.37,1.02l1.13,.83c3.98,2.93,7.96,5.85,11.97,8.79,.11,.08,.23,.17,.3,.23-.05,.08-.13,.2-.2,.29-1.34,1.93-2.69,3.85-4.03,5.78l-3.15,4.5c-1.77,2.53-3.53,5.06-5.29,7.6-.03,.04-.05,.07-.07,.09-.03-.02-.06-.04-.11-.08-.66-.53-1.32-1.05-1.98-1.57-.94-.73-1.91-1.49-2.83-2.27h0c-1.02-.85-2.06-1.25-3.37-1.28-2.25-.06-4.53-.21-6.74-.35-.89-.06-1.77-.11-2.66-.16-1.41-.08-2.82-.16-4.23-.24-3.34-.19-6.8-.39-10.2-.6-2.57-.16-7.41-.54-12.09-.9-3.58-.28-6.96-.54-8.95-.67-.11,0-.21,0-.31,0-2.2-.21-4.48-.44-6.97-.71-5.15-.56-9.05-2.89-11.6-6.93-1.85-2.94-3.73-6.12-6.09-10.33-1.27-2.26-2.75-4.95-4.05-7.7-.14-.3-.05-.65,.22-.84,1.83-1.28,4.63-1.36,6.66-.2,1.31,.75,2.35,1.87,3.37,3.61,.76,1.31,1.53,2.61,2.3,3.91Zm73.38,28.35l2.89-4.15c1.59-2.28,3.18-4.57,4.77-6.85,.69-.99,1.39-1.99,2.09-2.98,.97-1.38,1.93-2.76,2.89-4.14,.08-.12,.13-.15,.13-.16,.02,0,.08,.02,.21,.1,2.35,1.48,4.76,3.2,7.09,4.86l1.3,.92s.02,.03,.01,.05l-15.56,22.23s-.06,.03-.08,.01l-8.52-5.86v-.04c.92-1.34,1.86-2.67,2.79-4.01Zm-59.42-30.71c-.87,1.4-.57,2.93-.12,4.39,.04,.14,.09,.28,.15,.42-2.66-3.73-4.73-6.74-6.64-9.61-.05-.08-.1-.15-.13-.2,.08,0,.19-.02,.34-.02,2.24-.06,4.09,.83,5.67,2.71,.11,.13,.21,.27,.31,.4,.08,.11,.16,.22,.25,.33,.46,.58,.58,.93,.18,1.57Z"/><g class="cls-1"><path class="cls-3" d="M82.64,43.19h0c-.53-.77-1.24-1.4-2.11-1.86-.82-.43-1.72-.79-2.68-1.07-.44-.13-.91-.25-1.43-.39v-6.82c.56,.06,1.13,.18,1.69,.33,.7,.19,1.38,.47,2.03,.83,.35,.2,.77,.23,1.15,.1,.37-.13,.68-.41,.83-.77l.16-.39c.28-.65,.03-1.4-.58-1.76-.77-.45-1.65-.81-2.62-1.09-.86-.25-1.76-.41-2.66-.48v-2.11c0-.77-.63-1.4-1.4-1.4s-1.4,.63-1.4,1.4v2.16c-1.14,.13-2.14,.39-2.97,.77-1.26,.59-2.22,1.38-2.84,2.37-.62,.98-.94,2.07-.94,3.24,0,1.26,.28,2.31,.83,3.11,.53,.78,1.24,1.42,2.11,1.89,.82,.45,1.73,.81,2.71,1.07,.37,.1,.74,.19,1.11,.29v6.8c-.87-.1-1.7-.31-2.48-.61-.85-.33-1.59-.73-2.18-1.17-.33-.25-.76-.33-1.16-.24-.4,.09-.74,.36-.93,.73l-.19,.37c-.3,.58-.16,1.29,.34,1.7,.8,.67,1.85,1.24,3.11,1.7,1.1,.39,2.26,.64,3.48,.75v2.13c0,.77,.63,1.4,1.4,1.4s1.4-.63,1.4-1.4v-2.13c1.25-.12,2.33-.38,3.23-.79,1.27-.59,2.24-1.38,2.87-2.36,.63-.98,.95-2.07,.95-3.22,0-1.24-.28-2.27-.83-3.07Zm-2.67,3.22c0,.56-.16,1.06-.48,1.52h0c-.32,.46-.85,.84-1.56,1.12-.42,.17-.92,.29-1.51,.36v-6.07c.49,.14,.95,.3,1.38,.46,.67,.26,1.22,.61,1.63,1.04,.36,.39,.54,.9,.54,1.57Zm-6.35-13.29v6.02c-.37-.11-.73-.23-1.07-.35h0c-.68-.25-1.23-.59-1.64-1.02-.36-.39-.54-.9-.54-1.57,0-.6,.16-1.13,.48-1.6,.32-.47,.84-.86,1.55-1.15,.35-.14,.75-.25,1.21-.33Z"/><path class="cls-3" d="M75,69.65c-16.27,0-29.5-13.23-29.5-29.5s13.23-29.5,29.5-29.5,29.5,13.23,29.5,29.5-13.23,29.5-29.5,29.5Zm0-55.58c-14.38,0-26.08,11.7-26.08,26.08s11.7,26.08,26.08,26.08,26.08-11.7,26.08-26.08-11.7-26.08-26.08-26.08Z"/></g></svg>