<?xml version="1.0" encoding="UTF-8"?><svg id="Capa_1" xmlns="http://www.w3.org/2000/svg" xmlns:xlink="http://www.w3.org/1999/xlink" viewBox="0 0 150 150"><defs><style>.cls-1{fill:#b2ce3a;}.cls-2{filter:url(#drop-shadow-2);}.cls-3{fill:#217c4c;}</style><filter id="drop-shadow-2" filterUnits="userSpaceOnUse"><feOffset dx="3" dy="3"/><feGaussianBlur result="blur" stdDeviation="3"/><feFlood flood-color="#000" flood-opacity=".2"/><feComposite in2="blur" operator="in"/><feComposite in="SourceGraphic"/></filter></defs><circle class="cls-1" cx="75" cy="74.08" r="60.95"/><g class="cls-2"><path class="cls-3" d="M128.12,47.15c0-5.94-2.57-11.83-7.25-15.61-4.57-3.7-10.63-3.35-16.02-4.22-5.42-.88-10.76-2.95-15.47-5.95-4.07-2.6-7.11-7.08-11.47-9.11-7.02-3.27-13.72,6.27-19.1,9.41-7.01,4.1-14.83,6.64-22.8,7.36-6.61,.59-14.06,4.79-14.13,13.03-.12,14.66,.46,26,2.99,40.58,3.41,19.65,22.13,50.31,42.1,54.89,6.76,1.55,15.64,1.11,21.71-1.81,8.38-4.04,10.28-6.65,16.72-13.7,10.67-11.67,17.35-28.06,19.99-42.43,1.46-7.95,2.73-22.79,2.73-32.45Zm-5.92,10.06c.02,11.07-2,31.81-12.19,49.86-6.87,12.18-20.22,26.56-34.58,26.71-11.64,.12-22.09-10.46-29.43-19.21-16.6-19.78-19.48-44.4-19.27-69.41,.04-4.98,3.03-8.6,7.28-10.38,2.82-1.18,5.86-1.57,8.85-2.08,5.32-.91,10.68-2.25,15.51-4.86s8.06-7.32,12.87-9.43c5.83-2.56,10.62,3.36,14.99,6.57,4.44,3.25,9.5,5.55,14.77,6.75,5.25,1.2,10.77,.44,15.5,3.66,5.91,4.03,5.68,14.03,5.7,21.83Z"/><path class="cls-3" d="M71.46,95.63c-.87,0-1.74-.33-2.41-1l-16.83-16.83c-1.33-1.33-1.33-3.49,0-4.82,1.33-1.33,3.49-1.33,4.82,0l14.42,14.42,28.12-28.12c1.33-1.33,3.49-1.33,4.82,0,1.33,1.33,1.33,3.49,0,4.82l-30.53,30.53c-.67,.67-1.54,1-2.41,1Z"/></g></svg>