<?xml version="1.0" encoding="UTF-8"?><svg id="Capa_1" xmlns="http://www.w3.org/2000/svg" xmlns:xlink="http://www.w3.org/1999/xlink" viewBox="0 0 150 150"><defs><style>.cls-1{fill:#b2ce3a;}.cls-2,.cls-3{fill:#217c4c;}.cls-3{filter:url(#drop-shadow-2);}</style><filter id="drop-shadow-2" filterUnits="userSpaceOnUse"><feOffset dx="3" dy="3"/><feGaussianBlur result="blur" stdDeviation="3"/><feFlood flood-color="#000" flood-opacity=".2"/><feComposite in2="blur" operator="in"/><feComposite in="SourceGraphic"/></filter></defs><circle class="cls-1" cx="75" cy="75" r="60.95"/><path class="cls-3" d="M114.05,36.28c-.38-2.44-1.64-3.76-4.1-4.18-2.15-.37-4.33-.44-6.48-.06-11.72,2.08-19.04,11.54-17.88,23.39,.2,2.06-.77,3.15-1.89,4.63-.46-1.5-1.96-2.14-1.68-4,2.01-12.98-8.32-24.58-21.44-24.22-5.64,.15-6.89,1.29-7.17,6.9-.23,4.46,.95,8.58,3.4,12.32,.8,1.22,1.99,1.53,3.03,.89,.98-.6,1.25-1.8,.67-2.97-.15-.29-.33-.57-.49-.86-1.95-3.33-2.66-6.9-2.23-10.73,.09-.81,.38-1.13,1.19-1.23,9.05-1.1,17.41,5.15,18.83,14.12,.11,.67,.12,1.36,.15,2.04-2.01-1.79-4.04-3.57-6.03-5.38-1.14-1.04-2.32-1.2-3.24-.34-.98,.91-.91,2.15,.21,3.34,1.1,1.17,2.23,2.3,3.31,3.48,.86,.95,1.92,1.73,2.63,2.95-.65,0-1.17,.04-1.68,0-2.18-.19-4.25-.79-6.22-1.74-1.48-.71-2.66-.38-3.24,.85-.54,1.15-.07,2.2,1.35,2.96,.41,.22,.84,.43,1.28,.6,3.71,1.49,7.53,2.04,11.49,1.4,.77-.13,1.23,.08,1.63,.72,1.21,1.9,2.13,3.91,2.15,6.19,0,0,0,.01,0,.02,.31,1.5-.6,5.21,2.2,5.01,.97-.07,2.1,.1,2.17-3.27,0-.14,0-.28,0-.42,0-2.56,.61-4.92,1.97-7.11,.56-.9,1.13-1.28,2.26-1.11,4.94,.74,9.56-.29,13.83-2.83,7.31-4.36,11.33-12.96,10.02-21.37Zm-20.89,20.16c-.08,0-.16-.07-.41-.18,1.72-1.8,3.39-3.55,5.06-5.31,.39-.41,.81-.8,1.17-1.22,.92-1.06,.9-2.3-.03-3.14-.87-.79-2.08-.76-3.03,.19-1.73,1.73-3.41,3.51-5.1,5.29-.28,.3-.46,.7-.68,1.05-.13-.11-.26-.21-.39-.32-.44-5.69,3.5-12.08,9.16-14.91,3.08-1.54,6.33-2.03,9.73-1.7,.67,.07,1.09,.22,1.21,1.04,1.5,9.91-6.75,19.41-16.71,19.2Z"/><path class="cls-2" d="M132.95,106.67c-.07-.36-.28-.67-.59-.88-1.47-.97-3.84-2.6-6.12-4.18-2.55-1.76-4.95-3.42-5.92-4.02-.9-.56-1.58-.39-1.99-.16-.19,.11-.24,.12-.49-.07-1.85-1.38-3.82-2.84-6.02-4.46-1.21-.89-2.43-1.78-3.65-2.67-2.28-1.67-4.64-3.39-6.94-5.11-2.22-1.66-4.66-2.74-7.44-3.3-2.79-.56-5.62-.56-8.02-.5-2.05,.06-4.13,.16-6.15,.26-.87,.04-1.75,.09-2.62,.13h-.18c-2.8,.14-5.7,.27-8.53,.92l-3.79,.87c-4.26,.98-8.67,2-13,3.04-.35,.08-.38,.03-.5-.18-.87-1.51-1.95-2.77-3.22-3.74-2.39-1.83-4.97-2.52-7.67-2.06-1.11,.19-1.61,0-2.25-.83-2.72-3.55-7.48-4.77-11.83-3.04-1.71,.68-2.85,1.63-3.5,2.91-.03,.06-.08,.08-.3,.15l-.07,.02c-1.61,.45-2.81,1.07-3.8,1.92-1.33,1.16-1.68,2.58-1.01,4.1,.6,1.35,1.26,2.71,2.04,4.16,2.05,3.86,4.31,7.69,6.49,11.4l.97,1.64c1.23,2.09,2.8,4.47,5.18,6.3,2.54,1.96,5.2,3.16,8.12,3.68,2.63,.47,5.4,.71,7.63,.91,.34,.03,.68,.07,1.02,.1,.83,.09,1.69,.18,2.52,.18l1.8,.15c3.03,.25,7.19,.59,8.1,.65,3.85,.25,7.7,.51,11.55,.75,3.38,.21,6.76,.43,10.15,.62,3.93,.23,7.94,.46,11.92,.67,.38,.02,.63,.18,1.04,.52,.52,.43,1.04,.82,1.54,1.2,.85,.64,1.72,1.3,2.69,2.2,.19,.17,.35,.32,.49,.44,.16,.14,.35,.3,.4,.38-.01,.03-.04,.09-.12,.2-.23,.31-.63,.89-1.19,1.73-.42,.62-.26,1.44,.36,1.86l12.46,8.56c.24,.17,.52,.25,.79,.25,.44,0,.87-.21,1.14-.59,1.56-2.23,15.32-21.89,18.28-26.08h0c.21-.3,.29-.66,.22-1.02Zm-89.82-12.14c-.98-.15-1.99-.3-3-.4-.56-.06-.87-.25-1.15-.75-2-3.48-3.55-6.12-5.04-8.57-1.09-1.8-2.59-3.2-4.45-4.18-.58-.3-1.18-.53-1.88-.73,.47-.2,.98-.32,1.59-.38,2.67-.27,4.79,.79,6.31,3.14,2.62,4.07,5.42,8.13,8.08,11.93-.15-.02-.29-.04-.44-.06Zm-9.61-3.19c.96,1.64,1.93,3.28,2.88,4.92,.39,.68,.96,1.05,1.79,1.16,4.17,.57,9.1,1.25,14.05,1.96,.34,.05,.68,.1,1.02,.15,2.05,.31,4.18,.62,6.35,.57,2.16-.05,4.28-.25,6.44-.46,2.98-.29,6.12-.76,10.2-1.53,.56-.11,1.05-.42,1.34-.85,.25-.37,.33-.8,.24-1.22-.22-1-1.16-1.58-2.24-1.38-3.34,.6-6.92,1.2-10.5,1.54-2.71,.25-5.79,.54-8.78,.24-3.04-.31-5.44-2.54-5.57-5.19-.04-.77-.01-.88,.87-1.09l5.4-1.25c3.66-.85,7.31-1.7,10.97-2.56,2.07-.49,4.82-1.05,7.71-1.05,.71,0,1.43-.04,2.13-.08,.18-.01,.35-.02,.53-.03h0s1.61-.07,1.61-.07c.85-.04,1.7-.08,2.55-.12l.64-.03c2.66-.11,5.42-.23,8.11,.05,2.81,.29,5.08,1.07,6.95,2.37,.99,.69,1.98,1.43,2.94,2.14,.45,.34,.91,.68,1.37,1.02l1.4,1.03c3.89,2.86,7.78,5.72,11.69,8.59,.11,.08,.23,.17,.3,.23-.05,.08-.13,.2-.2,.29-1.37,1.97-2.74,3.93-4.11,5.9l-3.05,4.36c-1.77,2.54-3.54,5.08-5.31,7.62-.03,.04-.05,.07-.07,.09-.03-.02-.06-.04-.11-.08-.65-.53-1.32-1.05-1.98-1.57-.94-.73-1.91-1.49-2.84-2.27-1.02-.85-2.06-1.25-3.37-1.28-2.24-.06-4.52-.21-6.73-.35-.89-.06-1.78-.11-2.67-.17-1.41-.08-2.81-.16-4.22-.24-3.34-.19-6.8-.39-10.2-.6-2.57-.16-7.41-.54-12.09-.9-3.58-.28-6.96-.54-8.95-.67-.07,0-.14,0-.2,0-.04,0-.07,0-.11,0-2.2-.21-4.48-.44-6.97-.71-5.15-.56-9.05-2.89-11.6-6.93-1.85-2.93-3.73-6.12-6.09-10.33-1.27-2.27-2.75-4.95-4.05-7.7-.14-.3-.05-.65,.22-.84,1.83-1.28,4.63-1.36,6.66-.2,1.31,.75,2.35,1.87,3.37,3.61,.76,1.3,1.52,2.6,2.29,3.9Zm70.59,32.38c.93-1.34,1.87-2.67,2.8-4.01l2.81-4.04c1.61-2.32,3.23-4.64,4.85-6.96,.7-1,1.4-2,2.1-2.99,.96-1.37,1.93-2.75,2.88-4.12,.08-.12,.13-.15,.13-.16,.02,0,.08,.02,.21,.1,2.35,1.48,4.76,3.2,7.09,4.86l1.3,.93s.02,.03,.01,.05l-15.56,22.23s-.06,.03-.08,.01l-8.52-5.86-.24,.35,.23-.39Zm-56.62-34.72c-.87,1.4-.57,2.94-.12,4.39,.04,.14,.09,.28,.15,.42-2.65-3.73-4.73-6.73-6.64-9.61-.05-.08-.1-.15-.13-.2,.08,0,.19-.02,.34-.02,2.24-.06,4.09,.83,5.67,2.71,.11,.13,.21,.27,.31,.4,.08,.11,.16,.22,.25,.33,.46,.58,.58,.93,.18,1.57Z"/></svg>